<?xml version="1.0" encoding="utf-8" standalone="no"?>
<!DOCTYPE svg PUBLIC "-//W3C//DTD SVG 1.1//EN"
  "http://www.w3.org/Graphics/SVG/1.1/DTD/svg11.dtd">
<svg xmlns:xlink="http://www.w3.org/1999/xlink" width="625.532813pt" height="285.212812pt" viewBox="0 0 625.532813 285.212812" xmlns="http://www.w3.org/2000/svg" version="1.1">
 <metadata>
  <rdf:RDF xmlns:dc="http://purl.org/dc/elements/1.1/" xmlns:cc="http://creativecommons.org/ns#" xmlns:rdf="http://www.w3.org/1999/02/22-rdf-syntax-ns#">
   <cc:Work>
    <dc:type rdf:resource="http://purl.org/dc/dcmitype/StillImage"/>
    <dc:date>2026-04-18T13:26:21.610011</dc:date>
    <dc:format>image/svg+xml</dc:format>
    <dc:creator>
     <cc:Agent>
      <dc:title>Matplotlib v3.10.8, https://matplotlib.org/</dc:title>
     </cc:Agent>
    </dc:creator>
   </cc:Work>
  </rdf:RDF>
 </metadata>
 <defs>
  <style type="text/css">*{stroke-linejoin: round; stroke-linecap: butt}</style>
 </defs>
 <g id="figure_1">
  <g id="patch_1">
   <path d="M 0 285.212812 
L 625.532813 285.212812 
L 625.532813 0 
L 0 0 
z
" style="fill: #ffffff"/>
  </g>
  <g id="axes_1">
   <g id="patch_2">
    <path d="M 36.032813 254.16 
L 391.123722 254.16 
L 391.123722 32.4 
L 36.032813 32.4 
z
" style="fill: #ffffff"/>
   </g>
   <g id="matplotlib.axis_1">
    <g id="xtick_1">
     <g id="line2d_1">
      <path d="M 36.032813 254.16 
L 36.032813 32.4 
" clip-path="url(#p9d72dcfbc6)" style="fill: none; stroke: #b0b0b0; stroke-opacity: 0.3; stroke-width: 0.5; stroke-linecap: square"/>
     </g>
     <g id="line2d_2">
      <defs>
       <path id="m8deba47b1d" d="M 0 0 
L 0 3.5 
" style="stroke: #000000; stroke-width: 0.8"/>
      </defs>
      <g>
       <use xlink:href="#m8deba47b1d" x="36.032813" y="254.16" style="stroke: #000000; stroke-width: 0.8"/>
      </g>
     </g>
     <g id="text_1">
      <!-- 0.1 -->
      <g transform="translate(29.671563 267.23875) scale(0.08 -0.08)">
       <defs>
        <path id="DejaVuSans-30" d="M 2034 4250 
Q 1547 4250 1301 3770 
Q 1056 3291 1056 2328 
Q 1056 1369 1301 889 
Q 1547 409 2034 409 
Q 2525 409 2770 889 
Q 3016 1369 3016 2328 
Q 3016 3291 2770 3770 
Q 2525 4250 2034 4250 
z
M 2034 4750 
Q 2819 4750 3233 4129 
Q 3647 3509 3647 2328 
Q 3647 1150 3233 529 
Q 2819 -91 2034 -91 
Q 1250 -91 836 529 
Q 422 1150 422 2328 
Q 422 3509 836 4129 
Q 1250 4750 2034 4750 
z
" transform="scale(0.015625)"/>
        <path id="DejaVuSans-2e" d="M 684 794 
L 1344 794 
L 1344 0 
L 684 0 
L 684 794 
z
" transform="scale(0.015625)"/>
        <path id="DejaVuSans-31" d="M 794 531 
L 1825 531 
L 1825 4091 
L 703 3866 
L 703 4441 
L 1819 4666 
L 2450 4666 
L 2450 531 
L 3481 531 
L 3481 0 
L 794 0 
L 794 531 
z
" transform="scale(0.015625)"/>
       </defs>
       <use xlink:href="#DejaVuSans-30"/>
       <use xlink:href="#DejaVuSans-2e" transform="translate(63.623047 0)"/>
       <use xlink:href="#DejaVuSans-31" transform="translate(95.410156 0)"/>
      </g>
     </g>
    </g>
    <g id="xtick_2">
     <g id="line2d_3">
      <path d="M 75.930667 254.16 
L 75.930667 32.4 
" clip-path="url(#p9d72dcfbc6)" style="fill: none; stroke: #b0b0b0; stroke-opacity: 0.3; stroke-width: 0.5; stroke-linecap: square"/>
     </g>
     <g id="line2d_4">
      <g>
       <use xlink:href="#m8deba47b1d" x="75.930667" y="254.16" style="stroke: #000000; stroke-width: 0.8"/>
      </g>
     </g>
     <g id="text_2">
      <!-- 0.2 -->
      <g transform="translate(69.569417 267.23875) scale(0.08 -0.08)">
       <defs>
        <path id="DejaVuSans-32" d="M 1228 531 
L 3431 531 
L 3431 0 
L 469 0 
L 469 531 
Q 828 903 1448 1529 
Q 2069 2156 2228 2338 
Q 2531 2678 2651 2914 
Q 2772 3150 2772 3378 
Q 2772 3750 2511 3984 
Q 2250 4219 1831 4219 
Q 1534 4219 1204 4116 
Q 875 4013 500 3803 
L 500 4441 
Q 881 4594 1212 4672 
Q 1544 4750 1819 4750 
Q 2544 4750 2975 4387 
Q 3406 4025 3406 3419 
Q 3406 3131 3298 2873 
Q 3191 2616 2906 2266 
Q 2828 2175 2409 1742 
Q 1991 1309 1228 531 
z
" transform="scale(0.015625)"/>
       </defs>
       <use xlink:href="#DejaVuSans-30"/>
       <use xlink:href="#DejaVuSans-2e" transform="translate(63.623047 0)"/>
       <use xlink:href="#DejaVuSans-32" transform="translate(95.410156 0)"/>
      </g>
     </g>
    </g>
    <g id="xtick_3">
     <g id="line2d_5">
      <path d="M 115.828522 254.16 
L 115.828522 32.4 
" clip-path="url(#p9d72dcfbc6)" style="fill: none; stroke: #b0b0b0; stroke-opacity: 0.3; stroke-width: 0.5; stroke-linecap: square"/>
     </g>
     <g id="line2d_6">
      <g>
       <use xlink:href="#m8deba47b1d" x="115.828522" y="254.16" style="stroke: #000000; stroke-width: 0.8"/>
      </g>
     </g>
     <g id="text_3">
      <!-- 0.3 -->
      <g transform="translate(109.467272 267.23875) scale(0.08 -0.08)">
       <defs>
        <path id="DejaVuSans-33" d="M 2597 2516 
Q 3050 2419 3304 2112 
Q 3559 1806 3559 1356 
Q 3559 666 3084 287 
Q 2609 -91 1734 -91 
Q 1441 -91 1130 -33 
Q 819 25 488 141 
L 488 750 
Q 750 597 1062 519 
Q 1375 441 1716 441 
Q 2309 441 2620 675 
Q 2931 909 2931 1356 
Q 2931 1769 2642 2001 
Q 2353 2234 1838 2234 
L 1294 2234 
L 1294 2753 
L 1863 2753 
Q 2328 2753 2575 2939 
Q 2822 3125 2822 3475 
Q 2822 3834 2567 4026 
Q 2313 4219 1838 4219 
Q 1578 4219 1281 4162 
Q 984 4106 628 3988 
L 628 4550 
Q 988 4650 1302 4700 
Q 1616 4750 1894 4750 
Q 2613 4750 3031 4423 
Q 3450 4097 3450 3541 
Q 3450 3153 3228 2886 
Q 3006 2619 2597 2516 
z
" transform="scale(0.015625)"/>
       </defs>
       <use xlink:href="#DejaVuSans-30"/>
       <use xlink:href="#DejaVuSans-2e" transform="translate(63.623047 0)"/>
       <use xlink:href="#DejaVuSans-33" transform="translate(95.410156 0)"/>
      </g>
     </g>
    </g>
    <g id="xtick_4">
     <g id="line2d_7">
      <path d="M 155.726377 254.16 
L 155.726377 32.4 
" clip-path="url(#p9d72dcfbc6)" style="fill: none; stroke: #b0b0b0; stroke-opacity: 0.3; stroke-width: 0.5; stroke-linecap: square"/>
     </g>
     <g id="line2d_8">
      <g>
       <use xlink:href="#m8deba47b1d" x="155.726377" y="254.16" style="stroke: #000000; stroke-width: 0.8"/>
      </g>
     </g>
     <g id="text_4">
      <!-- 0.4 -->
      <g transform="translate(149.365127 267.23875) scale(0.08 -0.08)">
       <defs>
        <path id="DejaVuSans-34" d="M 2419 4116 
L 825 1625 
L 2419 1625 
L 2419 4116 
z
M 2253 4666 
L 3047 4666 
L 3047 1625 
L 3713 1625 
L 3713 1100 
L 3047 1100 
L 3047 0 
L 2419 0 
L 2419 1100 
L 313 1100 
L 313 1709 
L 2253 4666 
z
" transform="scale(0.015625)"/>
       </defs>
       <use xlink:href="#DejaVuSans-30"/>
       <use xlink:href="#DejaVuSans-2e" transform="translate(63.623047 0)"/>
       <use xlink:href="#DejaVuSans-34" transform="translate(95.410156 0)"/>
      </g>
     </g>
    </g>
    <g id="xtick_5">
     <g id="line2d_9">
      <path d="M 195.624232 254.16 
L 195.624232 32.4 
" clip-path="url(#p9d72dcfbc6)" style="fill: none; stroke: #b0b0b0; stroke-opacity: 0.3; stroke-width: 0.5; stroke-linecap: square"/>
     </g>
     <g id="line2d_10">
      <g>
       <use xlink:href="#m8deba47b1d" x="195.624232" y="254.16" style="stroke: #000000; stroke-width: 0.8"/>
      </g>
     </g>
     <g id="text_5">
      <!-- 0.5 -->
      <g transform="translate(189.262982 267.23875) scale(0.08 -0.08)">
       <defs>
        <path id="DejaVuSans-35" d="M 691 4666 
L 3169 4666 
L 3169 4134 
L 1269 4134 
L 1269 2991 
Q 1406 3038 1543 3061 
Q 1681 3084 1819 3084 
Q 2600 3084 3056 2656 
Q 3513 2228 3513 1497 
Q 3513 744 3044 326 
Q 2575 -91 1722 -91 
Q 1428 -91 1123 -41 
Q 819 9 494 109 
L 494 744 
Q 775 591 1075 516 
Q 1375 441 1709 441 
Q 2250 441 2565 725 
Q 2881 1009 2881 1497 
Q 2881 1984 2565 2268 
Q 2250 2553 1709 2553 
Q 1456 2553 1204 2497 
Q 953 2441 691 2322 
L 691 4666 
z
" transform="scale(0.015625)"/>
       </defs>
       <use xlink:href="#DejaVuSans-30"/>
       <use xlink:href="#DejaVuSans-2e" transform="translate(63.623047 0)"/>
       <use xlink:href="#DejaVuSans-35" transform="translate(95.410156 0)"/>
      </g>
     </g>
    </g>
    <g id="xtick_6">
     <g id="line2d_11">
      <path d="M 235.522087 254.16 
L 235.522087 32.4 
" clip-path="url(#p9d72dcfbc6)" style="fill: none; stroke: #b0b0b0; stroke-opacity: 0.3; stroke-width: 0.5; stroke-linecap: square"/>
     </g>
     <g id="line2d_12">
      <g>
       <use xlink:href="#m8deba47b1d" x="235.522087" y="254.16" style="stroke: #000000; stroke-width: 0.8"/>
      </g>
     </g>
     <g id="text_6">
      <!-- 0.6 -->
      <g transform="translate(229.160837 267.23875) scale(0.08 -0.08)">
       <defs>
        <path id="DejaVuSans-36" d="M 2113 2584 
Q 1688 2584 1439 2293 
Q 1191 2003 1191 1497 
Q 1191 994 1439 701 
Q 1688 409 2113 409 
Q 2538 409 2786 701 
Q 3034 994 3034 1497 
Q 3034 2003 2786 2293 
Q 2538 2584 2113 2584 
z
M 3366 4563 
L 3366 3988 
Q 3128 4100 2886 4159 
Q 2644 4219 2406 4219 
Q 1781 4219 1451 3797 
Q 1122 3375 1075 2522 
Q 1259 2794 1537 2939 
Q 1816 3084 2150 3084 
Q 2853 3084 3261 2657 
Q 3669 2231 3669 1497 
Q 3669 778 3244 343 
Q 2819 -91 2113 -91 
Q 1303 -91 875 529 
Q 447 1150 447 2328 
Q 447 3434 972 4092 
Q 1497 4750 2381 4750 
Q 2619 4750 2861 4703 
Q 3103 4656 3366 4563 
z
" transform="scale(0.015625)"/>
       </defs>
       <use xlink:href="#DejaVuSans-30"/>
       <use xlink:href="#DejaVuSans-2e" transform="translate(63.623047 0)"/>
       <use xlink:href="#DejaVuSans-36" transform="translate(95.410156 0)"/>
      </g>
     </g>
    </g>
    <g id="xtick_7">
     <g id="line2d_13">
      <path d="M 275.419942 254.16 
L 275.419942 32.4 
" clip-path="url(#p9d72dcfbc6)" style="fill: none; stroke: #b0b0b0; stroke-opacity: 0.3; stroke-width: 0.5; stroke-linecap: square"/>
     </g>
     <g id="line2d_14">
      <g>
       <use xlink:href="#m8deba47b1d" x="275.419942" y="254.16" style="stroke: #000000; stroke-width: 0.8"/>
      </g>
     </g>
     <g id="text_7">
      <!-- 0.7 -->
      <g transform="translate(269.058692 267.23875) scale(0.08 -0.08)">
       <defs>
        <path id="DejaVuSans-37" d="M 525 4666 
L 3525 4666 
L 3525 4397 
L 1831 0 
L 1172 0 
L 2766 4134 
L 525 4134 
L 525 4666 
z
" transform="scale(0.015625)"/>
       </defs>
       <use xlink:href="#DejaVuSans-30"/>
       <use xlink:href="#DejaVuSans-2e" transform="translate(63.623047 0)"/>
       <use xlink:href="#DejaVuSans-37" transform="translate(95.410156 0)"/>
      </g>
     </g>
    </g>
    <g id="xtick_8">
     <g id="line2d_15">
      <path d="M 315.317797 254.16 
L 315.317797 32.4 
" clip-path="url(#p9d72dcfbc6)" style="fill: none; stroke: #b0b0b0; stroke-opacity: 0.3; stroke-width: 0.5; stroke-linecap: square"/>
     </g>
     <g id="line2d_16">
      <g>
       <use xlink:href="#m8deba47b1d" x="315.317797" y="254.16" style="stroke: #000000; stroke-width: 0.8"/>
      </g>
     </g>
     <g id="text_8">
      <!-- 0.8 -->
      <g transform="translate(308.956547 267.23875) scale(0.08 -0.08)">
       <defs>
        <path id="DejaVuSans-38" d="M 2034 2216 
Q 1584 2216 1326 1975 
Q 1069 1734 1069 1313 
Q 1069 891 1326 650 
Q 1584 409 2034 409 
Q 2484 409 2743 651 
Q 3003 894 3003 1313 
Q 3003 1734 2745 1975 
Q 2488 2216 2034 2216 
z
M 1403 2484 
Q 997 2584 770 2862 
Q 544 3141 544 3541 
Q 544 4100 942 4425 
Q 1341 4750 2034 4750 
Q 2731 4750 3128 4425 
Q 3525 4100 3525 3541 
Q 3525 3141 3298 2862 
Q 3072 2584 2669 2484 
Q 3125 2378 3379 2068 
Q 3634 1759 3634 1313 
Q 3634 634 3220 271 
Q 2806 -91 2034 -91 
Q 1263 -91 848 271 
Q 434 634 434 1313 
Q 434 1759 690 2068 
Q 947 2378 1403 2484 
z
M 1172 3481 
Q 1172 3119 1398 2916 
Q 1625 2713 2034 2713 
Q 2441 2713 2670 2916 
Q 2900 3119 2900 3481 
Q 2900 3844 2670 4047 
Q 2441 4250 2034 4250 
Q 1625 4250 1398 4047 
Q 1172 3844 1172 3481 
z
" transform="scale(0.015625)"/>
       </defs>
       <use xlink:href="#DejaVuSans-30"/>
       <use xlink:href="#DejaVuSans-2e" transform="translate(63.623047 0)"/>
       <use xlink:href="#DejaVuSans-38" transform="translate(95.410156 0)"/>
      </g>
     </g>
    </g>
    <g id="xtick_9">
     <g id="line2d_17">
      <path d="M 355.215652 254.16 
L 355.215652 32.4 
" clip-path="url(#p9d72dcfbc6)" style="fill: none; stroke: #b0b0b0; stroke-opacity: 0.3; stroke-width: 0.5; stroke-linecap: square"/>
     </g>
     <g id="line2d_18">
      <g>
       <use xlink:href="#m8deba47b1d" x="355.215652" y="254.16" style="stroke: #000000; stroke-width: 0.8"/>
      </g>
     </g>
     <g id="text_9">
      <!-- 0.9 -->
      <g transform="translate(348.854402 267.23875) scale(0.08 -0.08)">
       <defs>
        <path id="DejaVuSans-39" d="M 703 97 
L 703 672 
Q 941 559 1184 500 
Q 1428 441 1663 441 
Q 2288 441 2617 861 
Q 2947 1281 2994 2138 
Q 2813 1869 2534 1725 
Q 2256 1581 1919 1581 
Q 1219 1581 811 2004 
Q 403 2428 403 3163 
Q 403 3881 828 4315 
Q 1253 4750 1959 4750 
Q 2769 4750 3195 4129 
Q 3622 3509 3622 2328 
Q 3622 1225 3098 567 
Q 2575 -91 1691 -91 
Q 1453 -91 1209 -44 
Q 966 3 703 97 
z
M 1959 2075 
Q 2384 2075 2632 2365 
Q 2881 2656 2881 3163 
Q 2881 3666 2632 3958 
Q 2384 4250 1959 4250 
Q 1534 4250 1286 3958 
Q 1038 3666 1038 3163 
Q 1038 2656 1286 2365 
Q 1534 2075 1959 2075 
z
" transform="scale(0.015625)"/>
       </defs>
       <use xlink:href="#DejaVuSans-30"/>
       <use xlink:href="#DejaVuSans-2e" transform="translate(63.623047 0)"/>
       <use xlink:href="#DejaVuSans-39" transform="translate(95.410156 0)"/>
      </g>
     </g>
    </g>
    <g id="text_10">
     <!-- Cosine threshold (τ) -->
     <g transform="translate(168.19647 279.741094) scale(0.09 -0.09)">
      <defs>
       <path id="DejaVuSans-43" d="M 4122 4306 
L 4122 3641 
Q 3803 3938 3442 4084 
Q 3081 4231 2675 4231 
Q 1875 4231 1450 3742 
Q 1025 3253 1025 2328 
Q 1025 1406 1450 917 
Q 1875 428 2675 428 
Q 3081 428 3442 575 
Q 3803 722 4122 1019 
L 4122 359 
Q 3791 134 3420 21 
Q 3050 -91 2638 -91 
Q 1578 -91 968 557 
Q 359 1206 359 2328 
Q 359 3453 968 4101 
Q 1578 4750 2638 4750 
Q 3056 4750 3426 4639 
Q 3797 4528 4122 4306 
z
" transform="scale(0.015625)"/>
       <path id="DejaVuSans-6f" d="M 1959 3097 
Q 1497 3097 1228 2736 
Q 959 2375 959 1747 
Q 959 1119 1226 758 
Q 1494 397 1959 397 
Q 2419 397 2687 759 
Q 2956 1122 2956 1747 
Q 2956 2369 2687 2733 
Q 2419 3097 1959 3097 
z
M 1959 3584 
Q 2709 3584 3137 3096 
Q 3566 2609 3566 1747 
Q 3566 888 3137 398 
Q 2709 -91 1959 -91 
Q 1206 -91 779 398 
Q 353 888 353 1747 
Q 353 2609 779 3096 
Q 1206 3584 1959 3584 
z
" transform="scale(0.015625)"/>
       <path id="DejaVuSans-73" d="M 2834 3397 
L 2834 2853 
Q 2591 2978 2328 3040 
Q 2066 3103 1784 3103 
Q 1356 3103 1142 2972 
Q 928 2841 928 2578 
Q 928 2378 1081 2264 
Q 1234 2150 1697 2047 
L 1894 2003 
Q 2506 1872 2764 1633 
Q 3022 1394 3022 966 
Q 3022 478 2636 193 
Q 2250 -91 1575 -91 
Q 1294 -91 989 -36 
Q 684 19 347 128 
L 347 722 
Q 666 556 975 473 
Q 1284 391 1588 391 
Q 1994 391 2212 530 
Q 2431 669 2431 922 
Q 2431 1156 2273 1281 
Q 2116 1406 1581 1522 
L 1381 1569 
Q 847 1681 609 1914 
Q 372 2147 372 2553 
Q 372 3047 722 3315 
Q 1072 3584 1716 3584 
Q 2034 3584 2315 3537 
Q 2597 3491 2834 3397 
z
" transform="scale(0.015625)"/>
       <path id="DejaVuSans-69" d="M 603 3500 
L 1178 3500 
L 1178 0 
L 603 0 
L 603 3500 
z
M 603 4863 
L 1178 4863 
L 1178 4134 
L 603 4134 
L 603 4863 
z
" transform="scale(0.015625)"/>
       <path id="DejaVuSans-6e" d="M 3513 2113 
L 3513 0 
L 2938 0 
L 2938 2094 
Q 2938 2591 2744 2837 
Q 2550 3084 2163 3084 
Q 1697 3084 1428 2787 
Q 1159 2491 1159 1978 
L 1159 0 
L 581 0 
L 581 3500 
L 1159 3500 
L 1159 2956 
Q 1366 3272 1645 3428 
Q 1925 3584 2291 3584 
Q 2894 3584 3203 3211 
Q 3513 2838 3513 2113 
z
" transform="scale(0.015625)"/>
       <path id="DejaVuSans-65" d="M 3597 1894 
L 3597 1613 
L 953 1613 
Q 991 1019 1311 708 
Q 1631 397 2203 397 
Q 2534 397 2845 478 
Q 3156 559 3463 722 
L 3463 178 
Q 3153 47 2828 -22 
Q 2503 -91 2169 -91 
Q 1331 -91 842 396 
Q 353 884 353 1716 
Q 353 2575 817 3079 
Q 1281 3584 2069 3584 
Q 2775 3584 3186 3129 
Q 3597 2675 3597 1894 
z
M 3022 2063 
Q 3016 2534 2758 2815 
Q 2500 3097 2075 3097 
Q 1594 3097 1305 2825 
Q 1016 2553 972 2059 
L 3022 2063 
z
" transform="scale(0.015625)"/>
       <path id="DejaVuSans-20" transform="scale(0.015625)"/>
       <path id="DejaVuSans-74" d="M 1172 4494 
L 1172 3500 
L 2356 3500 
L 2356 3053 
L 1172 3053 
L 1172 1153 
Q 1172 725 1289 603 
Q 1406 481 1766 481 
L 2356 481 
L 2356 0 
L 1766 0 
Q 1100 0 847 248 
Q 594 497 594 1153 
L 594 3053 
L 172 3053 
L 172 3500 
L 594 3500 
L 594 4494 
L 1172 4494 
z
" transform="scale(0.015625)"/>
       <path id="DejaVuSans-68" d="M 3513 2113 
L 3513 0 
L 2938 0 
L 2938 2094 
Q 2938 2591 2744 2837 
Q 2550 3084 2163 3084 
Q 1697 3084 1428 2787 
Q 1159 2491 1159 1978 
L 1159 0 
L 581 0 
L 581 4863 
L 1159 4863 
L 1159 2956 
Q 1366 3272 1645 3428 
Q 1925 3584 2291 3584 
Q 2894 3584 3203 3211 
Q 3513 2838 3513 2113 
z
" transform="scale(0.015625)"/>
       <path id="DejaVuSans-72" d="M 2631 2963 
Q 2534 3019 2420 3045 
Q 2306 3072 2169 3072 
Q 1681 3072 1420 2755 
Q 1159 2438 1159 1844 
L 1159 0 
L 581 0 
L 581 3500 
L 1159 3500 
L 1159 2956 
Q 1341 3275 1631 3429 
Q 1922 3584 2338 3584 
Q 2397 3584 2469 3576 
Q 2541 3569 2628 3553 
L 2631 2963 
z
" transform="scale(0.015625)"/>
       <path id="DejaVuSans-6c" d="M 603 4863 
L 1178 4863 
L 1178 0 
L 603 0 
L 603 4863 
z
" transform="scale(0.015625)"/>
       <path id="DejaVuSans-64" d="M 2906 2969 
L 2906 4863 
L 3481 4863 
L 3481 0 
L 2906 0 
L 2906 525 
Q 2725 213 2448 61 
Q 2172 -91 1784 -91 
Q 1150 -91 751 415 
Q 353 922 353 1747 
Q 353 2572 751 3078 
Q 1150 3584 1784 3584 
Q 2172 3584 2448 3432 
Q 2725 3281 2906 2969 
z
M 947 1747 
Q 947 1113 1208 752 
Q 1469 391 1925 391 
Q 2381 391 2643 752 
Q 2906 1113 2906 1747 
Q 2906 2381 2643 2742 
Q 2381 3103 1925 3103 
Q 1469 3103 1208 2742 
Q 947 2381 947 1747 
z
" transform="scale(0.015625)"/>
       <path id="DejaVuSans-28" d="M 1984 4856 
Q 1566 4138 1362 3434 
Q 1159 2731 1159 2009 
Q 1159 1288 1364 580 
Q 1569 -128 1984 -844 
L 1484 -844 
Q 1016 -109 783 600 
Q 550 1309 550 2009 
Q 550 2706 781 3412 
Q 1013 4119 1484 4856 
L 1984 4856 
z
" transform="scale(0.015625)"/>
       <path id="DejaVuSans-3c4" d="M 2319 638 
Q 2431 488 2769 488 
L 3047 488 
L 3047 0 
L 2700 0 
Q 2138 0 1881 300 
Q 1625 606 1625 1269 
L 1625 2925 
L 313 2925 
L 313 3500 
L 3541 3500 
L 3541 2925 
L 2213 2925 
L 2213 1234 
Q 2213 781 2319 638 
z
" transform="scale(0.015625)"/>
       <path id="DejaVuSans-29" d="M 513 4856 
L 1013 4856 
Q 1481 4119 1714 3412 
Q 1947 2706 1947 2009 
Q 1947 1309 1714 600 
Q 1481 -109 1013 -844 
L 513 -844 
Q 928 -128 1133 580 
Q 1338 1288 1338 2009 
Q 1338 2731 1133 3434 
Q 928 4138 513 4856 
z
" transform="scale(0.015625)"/>
      </defs>
      <use xlink:href="#DejaVuSans-43"/>
      <use xlink:href="#DejaVuSans-6f" transform="translate(69.824219 0)"/>
      <use xlink:href="#DejaVuSans-73" transform="translate(131.005859 0)"/>
      <use xlink:href="#DejaVuSans-69" transform="translate(183.105469 0)"/>
      <use xlink:href="#DejaVuSans-6e" transform="translate(210.888672 0)"/>
      <use xlink:href="#DejaVuSans-65" transform="translate(274.267578 0)"/>
      <use xlink:href="#DejaVuSans-20" transform="translate(335.791016 0)"/>
      <use xlink:href="#DejaVuSans-74" transform="translate(367.578125 0)"/>
      <use xlink:href="#DejaVuSans-68" transform="translate(406.787109 0)"/>
      <use xlink:href="#DejaVuSans-72" transform="translate(470.166016 0)"/>
      <use xlink:href="#DejaVuSans-65" transform="translate(509.029297 0)"/>
      <use xlink:href="#DejaVuSans-73" transform="translate(570.552734 0)"/>
      <use xlink:href="#DejaVuSans-68" transform="translate(622.652344 0)"/>
      <use xlink:href="#DejaVuSans-6f" transform="translate(686.03125 0)"/>
      <use xlink:href="#DejaVuSans-6c" transform="translate(747.212891 0)"/>
      <use xlink:href="#DejaVuSans-64" transform="translate(774.996094 0)"/>
      <use xlink:href="#DejaVuSans-20" transform="translate(838.472656 0)"/>
      <use xlink:href="#DejaVuSans-28" transform="translate(870.259766 0)"/>
      <use xlink:href="#DejaVuSans-3c4" transform="translate(909.273438 0)"/>
      <use xlink:href="#DejaVuSans-29" transform="translate(969.478516 0)"/>
     </g>
    </g>
   </g>
   <g id="matplotlib.axis_2">
    <g id="ytick_1">
     <g id="line2d_19">
      <path d="M 36.032813 254.16 
L 391.123722 254.16 
" clip-path="url(#p9d72dcfbc6)" style="fill: none; stroke: #b0b0b0; stroke-opacity: 0.3; stroke-width: 0.5; stroke-linecap: square"/>
     </g>
     <g id="line2d_20">
      <defs>
       <path id="m38d574d52f" d="M 0 0 
L -3.5 0 
" style="stroke: #000000; stroke-width: 0.8"/>
      </defs>
      <g>
       <use xlink:href="#m38d574d52f" x="36.032813" y="254.16" style="stroke: #000000; stroke-width: 0.8"/>
      </g>
     </g>
     <g id="text_11">
      <!-- 0.0 -->
      <g transform="translate(16.310313 257.199375) scale(0.08 -0.08)">
       <use xlink:href="#DejaVuSans-30"/>
       <use xlink:href="#DejaVuSans-2e" transform="translate(63.623047 0)"/>
       <use xlink:href="#DejaVuSans-30" transform="translate(95.410156 0)"/>
      </g>
     </g>
    </g>
    <g id="ytick_2">
     <g id="line2d_21">
      <path d="M 36.032813 226.44 
L 391.123722 226.44 
" clip-path="url(#p9d72dcfbc6)" style="fill: none; stroke: #b0b0b0; stroke-opacity: 0.3; stroke-width: 0.5; stroke-linecap: square"/>
     </g>
     <g id="line2d_22">
      <g>
       <use xlink:href="#m38d574d52f" x="36.032813" y="226.44" style="stroke: #000000; stroke-width: 0.8"/>
      </g>
     </g>
     <g id="text_12">
      <!-- 0.1 -->
      <g transform="translate(16.310313 229.479375) scale(0.08 -0.08)">
       <use xlink:href="#DejaVuSans-30"/>
       <use xlink:href="#DejaVuSans-2e" transform="translate(63.623047 0)"/>
       <use xlink:href="#DejaVuSans-31" transform="translate(95.410156 0)"/>
      </g>
     </g>
    </g>
    <g id="ytick_3">
     <g id="line2d_23">
      <path d="M 36.032813 198.72 
L 391.123722 198.72 
" clip-path="url(#p9d72dcfbc6)" style="fill: none; stroke: #b0b0b0; stroke-opacity: 0.3; stroke-width: 0.5; stroke-linecap: square"/>
     </g>
     <g id="line2d_24">
      <g>
       <use xlink:href="#m38d574d52f" x="36.032813" y="198.72" style="stroke: #000000; stroke-width: 0.8"/>
      </g>
     </g>
     <g id="text_13">
      <!-- 0.2 -->
      <g transform="translate(16.310313 201.759375) scale(0.08 -0.08)">
       <use xlink:href="#DejaVuSans-30"/>
       <use xlink:href="#DejaVuSans-2e" transform="translate(63.623047 0)"/>
       <use xlink:href="#DejaVuSans-32" transform="translate(95.410156 0)"/>
      </g>
     </g>
    </g>
    <g id="ytick_4">
     <g id="line2d_25">
      <path d="M 36.032813 171 
L 391.123722 171 
" clip-path="url(#p9d72dcfbc6)" style="fill: none; stroke: #b0b0b0; stroke-opacity: 0.3; stroke-width: 0.5; stroke-linecap: square"/>
     </g>
     <g id="line2d_26">
      <g>
       <use xlink:href="#m38d574d52f" x="36.032813" y="171" style="stroke: #000000; stroke-width: 0.8"/>
      </g>
     </g>
     <g id="text_14">
      <!-- 0.3 -->
      <g transform="translate(16.310313 174.039375) scale(0.08 -0.08)">
       <use xlink:href="#DejaVuSans-30"/>
       <use xlink:href="#DejaVuSans-2e" transform="translate(63.623047 0)"/>
       <use xlink:href="#DejaVuSans-33" transform="translate(95.410156 0)"/>
      </g>
     </g>
    </g>
    <g id="ytick_5">
     <g id="line2d_27">
      <path d="M 36.032813 143.28 
L 391.123722 143.28 
" clip-path="url(#p9d72dcfbc6)" style="fill: none; stroke: #b0b0b0; stroke-opacity: 0.3; stroke-width: 0.5; stroke-linecap: square"/>
     </g>
     <g id="line2d_28">
      <g>
       <use xlink:href="#m38d574d52f" x="36.032813" y="143.28" style="stroke: #000000; stroke-width: 0.8"/>
      </g>
     </g>
     <g id="text_15">
      <!-- 0.4 -->
      <g transform="translate(16.310313 146.319375) scale(0.08 -0.08)">
       <use xlink:href="#DejaVuSans-30"/>
       <use xlink:href="#DejaVuSans-2e" transform="translate(63.623047 0)"/>
       <use xlink:href="#DejaVuSans-34" transform="translate(95.410156 0)"/>
      </g>
     </g>
    </g>
    <g id="ytick_6">
     <g id="line2d_29">
      <path d="M 36.032813 115.56 
L 391.123722 115.56 
" clip-path="url(#p9d72dcfbc6)" style="fill: none; stroke: #b0b0b0; stroke-opacity: 0.3; stroke-width: 0.5; stroke-linecap: square"/>
     </g>
     <g id="line2d_30">
      <g>
       <use xlink:href="#m38d574d52f" x="36.032813" y="115.56" style="stroke: #000000; stroke-width: 0.8"/>
      </g>
     </g>
     <g id="text_16">
      <!-- 0.5 -->
      <g transform="translate(16.310313 118.599375) scale(0.08 -0.08)">
       <use xlink:href="#DejaVuSans-30"/>
       <use xlink:href="#DejaVuSans-2e" transform="translate(63.623047 0)"/>
       <use xlink:href="#DejaVuSans-35" transform="translate(95.410156 0)"/>
      </g>
     </g>
    </g>
    <g id="ytick_7">
     <g id="line2d_31">
      <path d="M 36.032813 87.84 
L 391.123722 87.84 
" clip-path="url(#p9d72dcfbc6)" style="fill: none; stroke: #b0b0b0; stroke-opacity: 0.3; stroke-width: 0.5; stroke-linecap: square"/>
     </g>
     <g id="line2d_32">
      <g>
       <use xlink:href="#m38d574d52f" x="36.032813" y="87.84" style="stroke: #000000; stroke-width: 0.8"/>
      </g>
     </g>
     <g id="text_17">
      <!-- 0.6 -->
      <g transform="translate(16.310313 90.879375) scale(0.08 -0.08)">
       <use xlink:href="#DejaVuSans-30"/>
       <use xlink:href="#DejaVuSans-2e" transform="translate(63.623047 0)"/>
       <use xlink:href="#DejaVuSans-36" transform="translate(95.410156 0)"/>
      </g>
     </g>
    </g>
    <g id="ytick_8">
     <g id="line2d_33">
      <path d="M 36.032813 60.12 
L 391.123722 60.12 
" clip-path="url(#p9d72dcfbc6)" style="fill: none; stroke: #b0b0b0; stroke-opacity: 0.3; stroke-width: 0.5; stroke-linecap: square"/>
     </g>
     <g id="line2d_34">
      <g>
       <use xlink:href="#m38d574d52f" x="36.032813" y="60.12" style="stroke: #000000; stroke-width: 0.8"/>
      </g>
     </g>
     <g id="text_18">
      <!-- 0.7 -->
      <g transform="translate(16.310313 63.159375) scale(0.08 -0.08)">
       <use xlink:href="#DejaVuSans-30"/>
       <use xlink:href="#DejaVuSans-2e" transform="translate(63.623047 0)"/>
       <use xlink:href="#DejaVuSans-37" transform="translate(95.410156 0)"/>
      </g>
     </g>
    </g>
    <g id="ytick_9">
     <g id="line2d_35">
      <path d="M 36.032813 32.4 
L 391.123722 32.4 
" clip-path="url(#p9d72dcfbc6)" style="fill: none; stroke: #b0b0b0; stroke-opacity: 0.3; stroke-width: 0.5; stroke-linecap: square"/>
     </g>
     <g id="line2d_36">
      <g>
       <use xlink:href="#m38d574d52f" x="36.032813" y="32.4" style="stroke: #000000; stroke-width: 0.8"/>
      </g>
     </g>
     <g id="text_19">
      <!-- 0.8 -->
      <g transform="translate(16.310313 35.439375) scale(0.08 -0.08)">
       <use xlink:href="#DejaVuSans-30"/>
       <use xlink:href="#DejaVuSans-2e" transform="translate(63.623047 0)"/>
       <use xlink:href="#DejaVuSans-38" transform="translate(95.410156 0)"/>
      </g>
     </g>
    </g>
    <g id="text_20">
     <!-- Mean F1 (training sweep) -->
     <g transform="translate(10.438594 200.645859) rotate(-90) scale(0.09 -0.09)">
      <defs>
       <path id="DejaVuSans-4d" d="M 628 4666 
L 1569 4666 
L 2759 1491 
L 3956 4666 
L 4897 4666 
L 4897 0 
L 4281 0 
L 4281 4097 
L 3078 897 
L 2444 897 
L 1241 4097 
L 1241 0 
L 628 0 
L 628 4666 
z
" transform="scale(0.015625)"/>
       <path id="DejaVuSans-61" d="M 2194 1759 
Q 1497 1759 1228 1600 
Q 959 1441 959 1056 
Q 959 750 1161 570 
Q 1363 391 1709 391 
Q 2188 391 2477 730 
Q 2766 1069 2766 1631 
L 2766 1759 
L 2194 1759 
z
M 3341 1997 
L 3341 0 
L 2766 0 
L 2766 531 
Q 2569 213 2275 61 
Q 1981 -91 1556 -91 
Q 1019 -91 701 211 
Q 384 513 384 1019 
Q 384 1609 779 1909 
Q 1175 2209 1959 2209 
L 2766 2209 
L 2766 2266 
Q 2766 2663 2505 2880 
Q 2244 3097 1772 3097 
Q 1472 3097 1187 3025 
Q 903 2953 641 2809 
L 641 3341 
Q 956 3463 1253 3523 
Q 1550 3584 1831 3584 
Q 2591 3584 2966 3190 
Q 3341 2797 3341 1997 
z
" transform="scale(0.015625)"/>
       <path id="DejaVuSans-46" d="M 628 4666 
L 3309 4666 
L 3309 4134 
L 1259 4134 
L 1259 2759 
L 3109 2759 
L 3109 2228 
L 1259 2228 
L 1259 0 
L 628 0 
L 628 4666 
z
" transform="scale(0.015625)"/>
       <path id="DejaVuSans-67" d="M 2906 1791 
Q 2906 2416 2648 2759 
Q 2391 3103 1925 3103 
Q 1463 3103 1205 2759 
Q 947 2416 947 1791 
Q 947 1169 1205 825 
Q 1463 481 1925 481 
Q 2391 481 2648 825 
Q 2906 1169 2906 1791 
z
M 3481 434 
Q 3481 -459 3084 -895 
Q 2688 -1331 1869 -1331 
Q 1566 -1331 1297 -1286 
Q 1028 -1241 775 -1147 
L 775 -588 
Q 1028 -725 1275 -790 
Q 1522 -856 1778 -856 
Q 2344 -856 2625 -561 
Q 2906 -266 2906 331 
L 2906 616 
Q 2728 306 2450 153 
Q 2172 0 1784 0 
Q 1141 0 747 490 
Q 353 981 353 1791 
Q 353 2603 747 3093 
Q 1141 3584 1784 3584 
Q 2172 3584 2450 3431 
Q 2728 3278 2906 2969 
L 2906 3500 
L 3481 3500 
L 3481 434 
z
" transform="scale(0.015625)"/>
       <path id="DejaVuSans-77" d="M 269 3500 
L 844 3500 
L 1563 769 
L 2278 3500 
L 2956 3500 
L 3675 769 
L 4391 3500 
L 4966 3500 
L 4050 0 
L 3372 0 
L 2619 2869 
L 1863 0 
L 1184 0 
L 269 3500 
z
" transform="scale(0.015625)"/>
       <path id="DejaVuSans-70" d="M 1159 525 
L 1159 -1331 
L 581 -1331 
L 581 3500 
L 1159 3500 
L 1159 2969 
Q 1341 3281 1617 3432 
Q 1894 3584 2278 3584 
Q 2916 3584 3314 3078 
Q 3713 2572 3713 1747 
Q 3713 922 3314 415 
Q 2916 -91 2278 -91 
Q 1894 -91 1617 61 
Q 1341 213 1159 525 
z
M 3116 1747 
Q 3116 2381 2855 2742 
Q 2594 3103 2138 3103 
Q 1681 3103 1420 2742 
Q 1159 2381 1159 1747 
Q 1159 1113 1420 752 
Q 1681 391 2138 391 
Q 2594 391 2855 752 
Q 3116 1113 3116 1747 
z
" transform="scale(0.015625)"/>
      </defs>
      <use xlink:href="#DejaVuSans-4d"/>
      <use xlink:href="#DejaVuSans-65" transform="translate(86.279297 0)"/>
      <use xlink:href="#DejaVuSans-61" transform="translate(147.802734 0)"/>
      <use xlink:href="#DejaVuSans-6e" transform="translate(209.082031 0)"/>
      <use xlink:href="#DejaVuSans-20" transform="translate(272.460938 0)"/>
      <use xlink:href="#DejaVuSans-46" transform="translate(304.248047 0)"/>
      <use xlink:href="#DejaVuSans-31" transform="translate(361.767578 0)"/>
      <use xlink:href="#DejaVuSans-20" transform="translate(425.390625 0)"/>
      <use xlink:href="#DejaVuSans-28" transform="translate(457.177734 0)"/>
      <use xlink:href="#DejaVuSans-74" transform="translate(496.191406 0)"/>
      <use xlink:href="#DejaVuSans-72" transform="translate(535.400391 0)"/>
      <use xlink:href="#DejaVuSans-61" transform="translate(576.513672 0)"/>
      <use xlink:href="#DejaVuSans-69" transform="translate(637.792969 0)"/>
      <use xlink:href="#DejaVuSans-6e" transform="translate(665.576172 0)"/>
      <use xlink:href="#DejaVuSans-69" transform="translate(728.955078 0)"/>
      <use xlink:href="#DejaVuSans-6e" transform="translate(756.738281 0)"/>
      <use xlink:href="#DejaVuSans-67" transform="translate(820.117188 0)"/>
      <use xlink:href="#DejaVuSans-20" transform="translate(883.59375 0)"/>
      <use xlink:href="#DejaVuSans-73" transform="translate(915.380859 0)"/>
      <use xlink:href="#DejaVuSans-77" transform="translate(967.480469 0)"/>
      <use xlink:href="#DejaVuSans-65" transform="translate(1049.267578 0)"/>
      <use xlink:href="#DejaVuSans-65" transform="translate(1110.791016 0)"/>
      <use xlink:href="#DejaVuSans-70" transform="translate(1172.314453 0)"/>
      <use xlink:href="#DejaVuSans-29" transform="translate(1235.791016 0)"/>
     </g>
    </g>
   </g>
   <g id="line2d_37">
    <path d="M 36.032813 253.214271 
L 40.022598 253.160574 
L 44.012383 253.099363 
L 48.002169 253.027481 
L 51.991954 252.944756 
L 55.98174 252.850404 
L 59.971525 252.740955 
L 63.961311 252.616723 
L 67.951096 252.47286 
L 71.940882 252.306427 
L 75.930667 252.114164 
L 79.920453 251.895378 
L 83.910238 251.641961 
L 87.900024 251.35183 
L 91.889809 251.016287 
L 95.879595 250.632507 
L 99.86938 250.204389 
L 103.859166 249.7001 
L 107.848951 249.122444 
L 111.838737 248.472146 
L 115.828522 247.728789 
L 119.818308 246.876375 
L 123.808093 245.90977 
L 127.797879 244.83348 
L 131.787664 243.614229 
L 135.77745 242.219975 
L 139.767235 240.671894 
L 143.757021 238.911151 
L 147.746806 237.005555 
L 151.736592 234.825272 
L 155.726377 232.523345 
L 159.716163 229.796519 
L 163.705948 226.91434 
L 167.695734 223.713863 
L 171.685519 220.292705 
L 175.675305 216.518126 
L 179.66509 212.314604 
L 183.654876 207.828055 
L 187.644661 203.196437 
L 191.634447 197.880493 
L 195.624232 192.545841 
L 199.614018 187.147197 
L 203.603803 180.942278 
L 207.593589 174.603557 
L 211.583374 168.520719 
L 215.57316 162.628605 
L 219.562945 156.521535 
L 223.552731 149.852362 
L 227.542516 143.84594 
L 231.532302 138.051791 
L 235.522087 132.785817 
L 239.511873 127.690931 
L 243.501658 122.709767 
L 247.491444 118.337618 
L 251.481229 115.29537 
L 255.471015 112.058231 
L 259.4608 109.367234 
L 263.450586 107.992981 
L 267.440371 107.042908 
L 271.430157 106.005733 
L 275.419942 107.257179 
L 279.409728 108.548927 
L 283.399513 110.152608 
L 287.389299 112.081527 
L 291.379084 114.322274 
L 295.36887 117.038054 
L 299.358655 120.434841 
L 303.348441 125.614596 
L 307.338226 130.349976 
L 311.328012 136.082688 
L 315.317797 142.264918 
L 319.307583 149.378158 
L 323.297368 157.214383 
L 327.287154 162.999845 
L 331.276939 171.090293 
L 335.266725 178.040104 
L 339.25651 186.435762 
L 343.246296 194.642725 
L 347.236081 202.707887 
L 351.225867 210.49976 
L 355.215652 217.73746 
L 359.205438 223.432813 
L 363.195223 229.529832 
L 367.185009 234.940005 
L 371.174794 239.87134 
L 375.16458 244.151685 
L 379.154365 247.594536 
L 383.144151 250.62879 
L 387.133936 253.2342 
L 391.123722 254.16 
" clip-path="url(#p9d72dcfbc6)" style="fill: none; stroke: #2166ac; stroke-width: 1.6; stroke-linecap: square"/>
   </g>
   <g id="line2d_38">
    <path d="M 36.032813 253.035838 
L 40.022598 252.896563 
L 44.012383 252.7209 
L 48.002169 252.50293 
L 51.991954 252.235268 
L 55.98174 251.908168 
L 59.971525 251.504011 
L 63.961311 251.010536 
L 67.951096 250.423325 
L 71.940882 249.727629 
L 75.930667 248.908759 
L 79.920453 247.978369 
L 83.910238 246.922342 
L 87.900024 245.719049 
L 91.889809 244.367967 
L 95.879595 242.877976 
L 99.86938 241.247701 
L 103.859166 239.450333 
L 107.848951 237.495182 
L 111.838737 235.425852 
L 115.828522 233.101949 
L 119.818308 230.669517 
L 123.808093 228.082913 
L 127.797879 225.279898 
L 131.787664 222.286195 
L 135.77745 219.097317 
L 139.767235 215.794846 
L 143.757021 212.170572 
L 147.746806 208.615115 
L 151.736592 204.805362 
L 155.726377 200.688477 
L 159.716163 196.453672 
L 163.705948 191.984702 
L 167.695734 187.691978 
L 171.685519 183.162001 
L 175.675305 178.809456 
L 179.66509 174.049022 
L 183.654876 169.479063 
L 187.644661 164.48622 
L 191.634447 159.421925 
L 195.624232 154.963571 
L 199.614018 150.429767 
L 203.603803 145.968054 
L 207.593589 141.680587 
L 211.583374 138.220456 
L 215.57316 134.229652 
L 219.562945 130.450909 
L 223.552731 127.630803 
L 227.542516 124.585914 
L 231.532302 122.194237 
L 235.522087 120.174303 
L 239.511873 117.989072 
L 243.501658 116.585838 
L 247.491444 114.819241 
L 251.481229 115.11408 
L 255.471015 115.096737 
L 259.4608 114.691034 
L 263.450586 115.425567 
L 267.440371 116.510109 
L 271.430157 117.961544 
L 275.419942 120.376596 
L 279.409728 122.438349 
L 283.399513 125.408168 
L 287.389299 129.590061 
L 291.379084 133.449133 
L 295.36887 137.837489 
L 299.358655 141.414176 
L 303.348441 145.419912 
L 307.338226 149.816334 
L 311.328012 155.494562 
L 315.317797 163.589703 
L 319.307583 171.114809 
L 323.297368 177.275248 
L 327.287154 184.512424 
L 331.276939 190.139039 
L 335.266725 195.213212 
L 339.25651 202.02033 
L 343.246296 208.664268 
L 347.236081 214.753768 
L 351.225867 220.467981 
L 355.215652 225.526957 
L 359.205438 230.961493 
L 363.195223 235.371834 
L 367.185009 238.993586 
L 371.174794 242.811747 
L 375.16458 246.841188 
L 379.154365 249.411064 
L 383.144151 252.311487 
L 387.133936 253.851056 
L 391.123722 254.16 
" clip-path="url(#p9d72dcfbc6)" style="fill: none; stroke: #4393c3; stroke-width: 1.6; stroke-linecap: square"/>
   </g>
   <g id="line2d_39">
    <path d="M 36.032813 253.472343 
L 40.022598 253.472343 
L 44.012383 253.472343 
L 48.002169 253.472343 
L 51.991954 253.472343 
L 55.98174 253.472343 
L 59.971525 253.472343 
L 63.961311 253.472343 
L 67.951096 253.472343 
L 71.940882 253.472343 
L 75.930667 253.472343 
L 79.920453 253.472343 
L 83.910238 253.472343 
L 87.900024 253.472343 
L 91.889809 253.472343 
L 95.879595 253.472343 
L 99.86938 253.472343 
L 103.859166 253.472343 
L 107.848951 253.472342 
L 111.838737 253.472342 
L 115.828522 253.472342 
L 119.818308 253.472342 
L 123.808093 253.472339 
L 127.797879 253.472333 
L 131.787664 253.472323 
L 135.77745 253.472307 
L 139.767235 253.47228 
L 143.757021 253.472235 
L 147.746806 253.472161 
L 151.736592 253.472038 
L 155.726377 253.471879 
L 159.716163 253.471672 
L 163.705948 253.471382 
L 167.695734 253.470998 
L 171.685519 253.470716 
L 175.675305 253.470086 
L 179.66509 253.46967 
L 183.654876 253.469028 
L 187.644661 253.468324 
L 191.634447 253.466728 
L 195.624232 253.464969 
L 199.614018 253.462732 
L 203.603803 253.460076 
L 207.593589 253.457077 
L 211.583374 253.452909 
L 215.57316 253.447809 
L 219.562945 253.440655 
L 223.552731 253.432703 
L 227.542516 253.422174 
L 231.532302 253.410358 
L 235.522087 253.39321 
L 239.511873 253.371336 
L 243.501658 253.346172 
L 247.491444 253.314719 
L 251.481229 253.275438 
L 255.471015 253.223558 
L 259.4608 253.160516 
L 263.450586 253.081541 
L 267.440371 252.982388 
L 271.430157 252.856978 
L 275.419942 252.699532 
L 279.409728 252.502267 
L 283.399513 252.245215 
L 287.389299 251.904835 
L 291.379084 251.457256 
L 295.36887 250.842407 
L 299.358655 250.026836 
L 303.348441 248.9576 
L 307.338226 247.495608 
L 311.328012 245.509071 
L 315.317797 242.878605 
L 319.307583 239.287618 
L 323.297368 234.43822 
L 327.287154 228.099486 
L 331.276939 219.932496 
L 335.266725 209.914094 
L 339.25651 198.972 
L 343.246296 189.026191 
L 347.236081 181.19362 
L 351.225867 177.00622 
L 355.215652 179.188125 
L 359.205438 185.684139 
L 363.195223 195.302466 
L 367.185009 208.27582 
L 371.174794 219.792857 
L 375.16458 231.549407 
L 379.154365 241.256509 
L 383.144151 250.030676 
L 387.133936 253.542972 
L 391.123722 254.16 
" clip-path="url(#p9d72dcfbc6)" style="fill: none; stroke: #f4a582; stroke-width: 1.6; stroke-linecap: square"/>
   </g>
   <g id="line2d_40">
    <path d="M 36.032813 253.472342 
L 40.022598 253.472342 
L 44.012383 253.472341 
L 48.002169 253.47234 
L 51.991954 253.472337 
L 55.98174 253.472334 
L 59.971525 253.472329 
L 63.961311 253.472325 
L 67.951096 253.472319 
L 71.940882 253.472312 
L 75.930667 253.4723 
L 79.920453 253.472286 
L 83.910238 253.472263 
L 87.900024 253.472234 
L 91.889809 253.472192 
L 95.879595 253.47233 
L 99.86938 253.472261 
L 103.859166 253.47236 
L 107.848951 253.472232 
L 111.838737 253.472443 
L 115.828522 253.472225 
L 119.818308 253.471935 
L 123.808093 253.471768 
L 127.797879 253.471707 
L 131.787664 253.47133 
L 135.77745 253.471192 
L 139.767235 253.470649 
L 143.757021 253.470313 
L 147.746806 253.46952 
L 151.736592 253.468157 
L 155.726377 253.46722 
L 159.716163 253.465831 
L 163.705948 253.463524 
L 167.695734 253.46151 
L 171.685519 253.457963 
L 175.675305 253.453446 
L 179.66509 253.449492 
L 183.654876 253.443717 
L 187.644661 253.437061 
L 191.634447 253.429902 
L 195.624232 253.418641 
L 199.614018 253.406295 
L 203.603803 253.391272 
L 207.593589 253.373289 
L 211.583374 253.354178 
L 215.57316 253.330869 
L 219.562945 253.305417 
L 223.552731 253.274677 
L 227.542516 253.240692 
L 231.532302 253.198929 
L 235.522087 253.148966 
L 239.511873 253.086016 
L 243.501658 253.011698 
L 247.491444 252.927981 
L 251.481229 252.828325 
L 255.471015 252.700661 
L 259.4608 252.546319 
L 263.450586 252.372255 
L 267.440371 252.14722 
L 271.430157 251.872677 
L 275.419942 251.522363 
L 279.409728 251.073739 
L 283.399513 250.546086 
L 287.389299 249.932791 
L 291.379084 249.117637 
L 295.36887 248.129612 
L 299.358655 246.850296 
L 303.348441 245.343386 
L 307.338226 243.620767 
L 311.328012 241.537469 
L 315.317797 239.314179 
L 319.307583 236.66715 
L 323.297368 233.907622 
L 327.287154 231.149999 
L 331.276939 227.843616 
L 335.266725 223.52796 
L 339.25651 219.819516 
L 343.246296 215.370053 
L 347.236081 211.862773 
L 351.225867 209.8502 
L 355.215652 208.744895 
L 359.205438 211.640618 
L 363.195223 218.283382 
L 367.185009 227.059057 
L 371.174794 235.418491 
L 375.16458 244.676644 
L 379.154365 249.878919 
L 383.144151 252.466 
L 387.133936 253.696713 
L 391.123722 254.16 
" clip-path="url(#p9d72dcfbc6)" style="fill: none; stroke: #d6604d; stroke-width: 1.6; stroke-linecap: square"/>
   </g>
   <g id="patch_3">
    <path d="M 36.032813 254.16 
L 36.032813 32.4 
" style="fill: none; stroke: #000000; stroke-width: 0.8; stroke-linejoin: miter; stroke-linecap: square"/>
   </g>
   <g id="patch_4">
    <path d="M 36.032813 254.16 
L 391.123722 254.16 
" style="fill: none; stroke: #000000; stroke-width: 0.8; stroke-linejoin: miter; stroke-linecap: square"/>
   </g>
   <g id="text_21">
    <!-- Pairwise threshold calibration curves -->
    <g transform="translate(98.10147 26.4) scale(0.11 -0.11)">
     <defs>
      <path id="DejaVuSans-Bold-50" d="M 588 4666 
L 2584 4666 
Q 3475 4666 3951 4270 
Q 4428 3875 4428 3144 
Q 4428 2409 3951 2014 
Q 3475 1619 2584 1619 
L 1791 1619 
L 1791 0 
L 588 0 
L 588 4666 
z
M 1791 3794 
L 1791 2491 
L 2456 2491 
Q 2806 2491 2997 2661 
Q 3188 2831 3188 3144 
Q 3188 3456 2997 3625 
Q 2806 3794 2456 3794 
L 1791 3794 
z
" transform="scale(0.015625)"/>
      <path id="DejaVuSans-Bold-61" d="M 2106 1575 
Q 1756 1575 1579 1456 
Q 1403 1338 1403 1106 
Q 1403 894 1545 773 
Q 1688 653 1941 653 
Q 2256 653 2472 879 
Q 2688 1106 2688 1447 
L 2688 1575 
L 2106 1575 
z
M 3816 1997 
L 3816 0 
L 2688 0 
L 2688 519 
Q 2463 200 2181 54 
Q 1900 -91 1497 -91 
Q 953 -91 614 226 
Q 275 544 275 1050 
Q 275 1666 698 1953 
Q 1122 2241 2028 2241 
L 2688 2241 
L 2688 2328 
Q 2688 2594 2478 2717 
Q 2269 2841 1825 2841 
Q 1466 2841 1156 2769 
Q 847 2697 581 2553 
L 581 3406 
Q 941 3494 1303 3539 
Q 1666 3584 2028 3584 
Q 2975 3584 3395 3211 
Q 3816 2838 3816 1997 
z
" transform="scale(0.015625)"/>
      <path id="DejaVuSans-Bold-69" d="M 538 3500 
L 1656 3500 
L 1656 0 
L 538 0 
L 538 3500 
z
M 538 4863 
L 1656 4863 
L 1656 3950 
L 538 3950 
L 538 4863 
z
" transform="scale(0.015625)"/>
      <path id="DejaVuSans-Bold-72" d="M 3138 2547 
Q 2991 2616 2845 2648 
Q 2700 2681 2553 2681 
Q 2122 2681 1889 2404 
Q 1656 2128 1656 1613 
L 1656 0 
L 538 0 
L 538 3500 
L 1656 3500 
L 1656 2925 
Q 1872 3269 2151 3426 
Q 2431 3584 2822 3584 
Q 2878 3584 2943 3579 
Q 3009 3575 3134 3559 
L 3138 2547 
z
" transform="scale(0.015625)"/>
      <path id="DejaVuSans-Bold-77" d="M 225 3500 
L 1313 3500 
L 1900 1088 
L 2491 3500 
L 3425 3500 
L 4013 1113 
L 4603 3500 
L 5691 3500 
L 4769 0 
L 3547 0 
L 2956 2406 
L 2369 0 
L 1147 0 
L 225 3500 
z
" transform="scale(0.015625)"/>
      <path id="DejaVuSans-Bold-73" d="M 3272 3391 
L 3272 2541 
Q 2913 2691 2578 2766 
Q 2244 2841 1947 2841 
Q 1628 2841 1473 2761 
Q 1319 2681 1319 2516 
Q 1319 2381 1436 2309 
Q 1553 2238 1856 2203 
L 2053 2175 
Q 2913 2066 3209 1816 
Q 3506 1566 3506 1031 
Q 3506 472 3093 190 
Q 2681 -91 1863 -91 
Q 1516 -91 1145 -36 
Q 775 19 384 128 
L 384 978 
Q 719 816 1070 734 
Q 1422 653 1784 653 
Q 2113 653 2278 743 
Q 2444 834 2444 1013 
Q 2444 1163 2330 1236 
Q 2216 1309 1875 1350 
L 1678 1375 
Q 931 1469 631 1722 
Q 331 1975 331 2491 
Q 331 3047 712 3315 
Q 1094 3584 1881 3584 
Q 2191 3584 2531 3537 
Q 2872 3491 3272 3391 
z
" transform="scale(0.015625)"/>
      <path id="DejaVuSans-Bold-65" d="M 4031 1759 
L 4031 1441 
L 1416 1441 
Q 1456 1047 1700 850 
Q 1944 653 2381 653 
Q 2734 653 3104 758 
Q 3475 863 3866 1075 
L 3866 213 
Q 3469 63 3072 -14 
Q 2675 -91 2278 -91 
Q 1328 -91 801 392 
Q 275 875 275 1747 
Q 275 2603 792 3093 
Q 1309 3584 2216 3584 
Q 3041 3584 3536 3087 
Q 4031 2591 4031 1759 
z
M 2881 2131 
Q 2881 2450 2695 2645 
Q 2509 2841 2209 2841 
Q 1884 2841 1681 2658 
Q 1478 2475 1428 2131 
L 2881 2131 
z
" transform="scale(0.015625)"/>
      <path id="DejaVuSans-Bold-20" transform="scale(0.015625)"/>
      <path id="DejaVuSans-Bold-74" d="M 1759 4494 
L 1759 3500 
L 2913 3500 
L 2913 2700 
L 1759 2700 
L 1759 1216 
Q 1759 972 1856 886 
Q 1953 800 2241 800 
L 2816 800 
L 2816 0 
L 1856 0 
Q 1194 0 917 276 
Q 641 553 641 1216 
L 641 2700 
L 84 2700 
L 84 3500 
L 641 3500 
L 641 4494 
L 1759 4494 
z
" transform="scale(0.015625)"/>
      <path id="DejaVuSans-Bold-68" d="M 4056 2131 
L 4056 0 
L 2931 0 
L 2931 347 
L 2931 1625 
Q 2931 2084 2911 2256 
Q 2891 2428 2841 2509 
Q 2775 2619 2662 2680 
Q 2550 2741 2406 2741 
Q 2056 2741 1856 2470 
Q 1656 2200 1656 1722 
L 1656 0 
L 538 0 
L 538 4863 
L 1656 4863 
L 1656 2988 
Q 1909 3294 2193 3439 
Q 2478 3584 2822 3584 
Q 3428 3584 3742 3212 
Q 4056 2841 4056 2131 
z
" transform="scale(0.015625)"/>
      <path id="DejaVuSans-Bold-6f" d="M 2203 2784 
Q 1831 2784 1636 2517 
Q 1441 2250 1441 1747 
Q 1441 1244 1636 976 
Q 1831 709 2203 709 
Q 2569 709 2762 976 
Q 2956 1244 2956 1747 
Q 2956 2250 2762 2517 
Q 2569 2784 2203 2784 
z
M 2203 3584 
Q 3106 3584 3614 3096 
Q 4122 2609 4122 1747 
Q 4122 884 3614 396 
Q 3106 -91 2203 -91 
Q 1297 -91 786 396 
Q 275 884 275 1747 
Q 275 2609 786 3096 
Q 1297 3584 2203 3584 
z
" transform="scale(0.015625)"/>
      <path id="DejaVuSans-Bold-6c" d="M 538 4863 
L 1656 4863 
L 1656 0 
L 538 0 
L 538 4863 
z
" transform="scale(0.015625)"/>
      <path id="DejaVuSans-Bold-64" d="M 2919 2988 
L 2919 4863 
L 4044 4863 
L 4044 0 
L 2919 0 
L 2919 506 
Q 2688 197 2409 53 
Q 2131 -91 1766 -91 
Q 1119 -91 703 423 
Q 288 938 288 1747 
Q 288 2556 703 3070 
Q 1119 3584 1766 3584 
Q 2128 3584 2408 3439 
Q 2688 3294 2919 2988 
z
M 2181 722 
Q 2541 722 2730 984 
Q 2919 1247 2919 1747 
Q 2919 2247 2730 2509 
Q 2541 2772 2181 2772 
Q 1825 2772 1636 2509 
Q 1447 2247 1447 1747 
Q 1447 1247 1636 984 
Q 1825 722 2181 722 
z
" transform="scale(0.015625)"/>
      <path id="DejaVuSans-Bold-63" d="M 3366 3391 
L 3366 2478 
Q 3138 2634 2908 2709 
Q 2678 2784 2431 2784 
Q 1963 2784 1702 2511 
Q 1441 2238 1441 1747 
Q 1441 1256 1702 982 
Q 1963 709 2431 709 
Q 2694 709 2930 787 
Q 3166 866 3366 1019 
L 3366 103 
Q 3103 6 2833 -42 
Q 2563 -91 2291 -91 
Q 1344 -91 809 395 
Q 275 881 275 1747 
Q 275 2613 809 3098 
Q 1344 3584 2291 3584 
Q 2566 3584 2833 3536 
Q 3100 3488 3366 3391 
z
" transform="scale(0.015625)"/>
      <path id="DejaVuSans-Bold-62" d="M 2400 722 
Q 2759 722 2948 984 
Q 3138 1247 3138 1747 
Q 3138 2247 2948 2509 
Q 2759 2772 2400 2772 
Q 2041 2772 1848 2508 
Q 1656 2244 1656 1747 
Q 1656 1250 1848 986 
Q 2041 722 2400 722 
z
M 1656 2988 
Q 1888 3294 2169 3439 
Q 2450 3584 2816 3584 
Q 3463 3584 3878 3070 
Q 4294 2556 4294 1747 
Q 4294 938 3878 423 
Q 3463 -91 2816 -91 
Q 2450 -91 2169 54 
Q 1888 200 1656 506 
L 1656 0 
L 538 0 
L 538 4863 
L 1656 4863 
L 1656 2988 
z
" transform="scale(0.015625)"/>
      <path id="DejaVuSans-Bold-6e" d="M 4056 2131 
L 4056 0 
L 2931 0 
L 2931 347 
L 2931 1631 
Q 2931 2084 2911 2256 
Q 2891 2428 2841 2509 
Q 2775 2619 2662 2680 
Q 2550 2741 2406 2741 
Q 2056 2741 1856 2470 
Q 1656 2200 1656 1722 
L 1656 0 
L 538 0 
L 538 3500 
L 1656 3500 
L 1656 2988 
Q 1909 3294 2193 3439 
Q 2478 3584 2822 3584 
Q 3428 3584 3742 3212 
Q 4056 2841 4056 2131 
z
" transform="scale(0.015625)"/>
      <path id="DejaVuSans-Bold-75" d="M 500 1363 
L 500 3500 
L 1625 3500 
L 1625 3150 
Q 1625 2866 1622 2436 
Q 1619 2006 1619 1863 
Q 1619 1441 1641 1255 
Q 1663 1069 1716 984 
Q 1784 875 1895 815 
Q 2006 756 2150 756 
Q 2500 756 2700 1025 
Q 2900 1294 2900 1772 
L 2900 3500 
L 4019 3500 
L 4019 0 
L 2900 0 
L 2900 506 
Q 2647 200 2364 54 
Q 2081 -91 1741 -91 
Q 1134 -91 817 281 
Q 500 653 500 1363 
z
" transform="scale(0.015625)"/>
      <path id="DejaVuSans-Bold-76" d="M 97 3500 
L 1216 3500 
L 2088 1081 
L 2956 3500 
L 4078 3500 
L 2700 0 
L 1472 0 
L 97 3500 
z
" transform="scale(0.015625)"/>
     </defs>
     <use xlink:href="#DejaVuSans-Bold-50"/>
     <use xlink:href="#DejaVuSans-Bold-61" transform="translate(70.666016 0)"/>
     <use xlink:href="#DejaVuSans-Bold-69" transform="translate(138.146484 0)"/>
     <use xlink:href="#DejaVuSans-Bold-72" transform="translate(172.423828 0)"/>
     <use xlink:href="#DejaVuSans-Bold-77" transform="translate(221.740234 0)"/>
     <use xlink:href="#DejaVuSans-Bold-69" transform="translate(314.123047 0)"/>
     <use xlink:href="#DejaVuSans-Bold-73" transform="translate(348.400391 0)"/>
     <use xlink:href="#DejaVuSans-Bold-65" transform="translate(407.921875 0)"/>
     <use xlink:href="#DejaVuSans-Bold-20" transform="translate(475.744141 0)"/>
     <use xlink:href="#DejaVuSans-Bold-74" transform="translate(510.558594 0)"/>
     <use xlink:href="#DejaVuSans-Bold-68" transform="translate(558.361328 0)"/>
     <use xlink:href="#DejaVuSans-Bold-72" transform="translate(629.552734 0)"/>
     <use xlink:href="#DejaVuSans-Bold-65" transform="translate(678.869141 0)"/>
     <use xlink:href="#DejaVuSans-Bold-73" transform="translate(746.691406 0)"/>
     <use xlink:href="#DejaVuSans-Bold-68" transform="translate(806.212891 0)"/>
     <use xlink:href="#DejaVuSans-Bold-6f" transform="translate(877.404297 0)"/>
     <use xlink:href="#DejaVuSans-Bold-6c" transform="translate(946.105469 0)"/>
     <use xlink:href="#DejaVuSans-Bold-64" transform="translate(980.382812 0)"/>
     <use xlink:href="#DejaVuSans-Bold-20" transform="translate(1051.964844 0)"/>
     <use xlink:href="#DejaVuSans-Bold-63" transform="translate(1086.779297 0)"/>
     <use xlink:href="#DejaVuSans-Bold-61" transform="translate(1146.056641 0)"/>
     <use xlink:href="#DejaVuSans-Bold-6c" transform="translate(1213.537109 0)"/>
     <use xlink:href="#DejaVuSans-Bold-69" transform="translate(1247.814453 0)"/>
     <use xlink:href="#DejaVuSans-Bold-62" transform="translate(1282.091797 0)"/>
     <use xlink:href="#DejaVuSans-Bold-72" transform="translate(1353.673828 0)"/>
     <use xlink:href="#DejaVuSans-Bold-61" transform="translate(1402.990234 0)"/>
     <use xlink:href="#DejaVuSans-Bold-74" transform="translate(1470.470703 0)"/>
     <use xlink:href="#DejaVuSans-Bold-69" transform="translate(1518.273438 0)"/>
     <use xlink:href="#DejaVuSans-Bold-6f" transform="translate(1552.550781 0)"/>
     <use xlink:href="#DejaVuSans-Bold-6e" transform="translate(1621.251953 0)"/>
     <use xlink:href="#DejaVuSans-Bold-20" transform="translate(1692.443359 0)"/>
     <use xlink:href="#DejaVuSans-Bold-63" transform="translate(1727.257812 0)"/>
     <use xlink:href="#DejaVuSans-Bold-75" transform="translate(1786.535156 0)"/>
     <use xlink:href="#DejaVuSans-Bold-72" transform="translate(1857.726562 0)"/>
     <use xlink:href="#DejaVuSans-Bold-76" transform="translate(1907.042969 0)"/>
     <use xlink:href="#DejaVuSans-Bold-65" transform="translate(1972.228516 0)"/>
     <use xlink:href="#DejaVuSans-Bold-73" transform="translate(2040.050781 0)"/>
    </g>
   </g>
   <g id="PathCollection_1">
    <defs>
     <path id="m8dbd4ab128" d="M 0 2.54951 
C 0.676138 2.54951 1.324674 2.280877 1.802776 1.802776 
C 2.280877 1.324674 2.54951 0.676138 2.54951 0 
C 2.54951 -0.676138 2.280877 -1.324674 1.802776 -1.802776 
C 1.324674 -2.280877 0.676138 -2.54951 0 -2.54951 
C -0.676138 -2.54951 -1.324674 -2.280877 -1.802776 -1.802776 
C -2.280877 -1.324674 -2.54951 -0.676138 -2.54951 0 
C -2.54951 0.676138 -2.280877 1.324674 -1.802776 1.802776 
C -1.324674 2.280877 -0.676138 2.54951 0 2.54951 
z
" style="stroke: #ffffff; stroke-width: 0.4"/>
    </defs>
    <g clip-path="url(#p9d72dcfbc6)">
     <use xlink:href="#m8dbd4ab128" x="271.430157" y="106.005733" style="fill: #2166ac; stroke: #ffffff; stroke-width: 0.4"/>
    </g>
   </g>
   <g id="PathCollection_2">
    <defs>
     <path id="m7c870b0170" d="M 0 2.54951 
C 0.676138 2.54951 1.324674 2.280877 1.802776 1.802776 
C 2.280877 1.324674 2.54951 0.676138 2.54951 0 
C 2.54951 -0.676138 2.280877 -1.324674 1.802776 -1.802776 
C 1.324674 -2.280877 0.676138 -2.54951 0 -2.54951 
C -0.676138 -2.54951 -1.324674 -2.280877 -1.802776 -1.802776 
C -2.280877 -1.324674 -2.54951 -0.676138 -2.54951 0 
C -2.54951 0.676138 -2.280877 1.324674 -1.802776 1.802776 
C -1.324674 2.280877 -0.676138 2.54951 0 2.54951 
z
" style="stroke: #ffffff; stroke-width: 0.4"/>
    </defs>
    <g clip-path="url(#p9d72dcfbc6)">
     <use xlink:href="#m7c870b0170" x="259.4608" y="114.691034" style="fill: #4393c3; stroke: #ffffff; stroke-width: 0.4"/>
    </g>
   </g>
   <g id="PathCollection_3">
    <defs>
     <path id="m1b832d1a53" d="M 0 2.54951 
C 0.676138 2.54951 1.324674 2.280877 1.802776 1.802776 
C 2.280877 1.324674 2.54951 0.676138 2.54951 0 
C 2.54951 -0.676138 2.280877 -1.324674 1.802776 -1.802776 
C 1.324674 -2.280877 0.676138 -2.54951 0 -2.54951 
C -0.676138 -2.54951 -1.324674 -2.280877 -1.802776 -1.802776 
C -2.280877 -1.324674 -2.54951 -0.676138 -2.54951 0 
C -2.54951 0.676138 -2.280877 1.324674 -1.802776 1.802776 
C -1.324674 2.280877 -0.676138 2.54951 0 2.54951 
z
" style="stroke: #ffffff; stroke-width: 0.4"/>
    </defs>
    <g clip-path="url(#p9d72dcfbc6)">
     <use xlink:href="#m1b832d1a53" x="351.225867" y="177.00622" style="fill: #f4a582; stroke: #ffffff; stroke-width: 0.4"/>
    </g>
   </g>
   <g id="PathCollection_4">
    <defs>
     <path id="m3e2081eb81" d="M 0 2.54951 
C 0.676138 2.54951 1.324674 2.280877 1.802776 1.802776 
C 2.280877 1.324674 2.54951 0.676138 2.54951 0 
C 2.54951 -0.676138 2.280877 -1.324674 1.802776 -1.802776 
C 1.324674 -2.280877 0.676138 -2.54951 0 -2.54951 
C -0.676138 -2.54951 -1.324674 -2.280877 -1.802776 -1.802776 
C -2.280877 -1.324674 -2.54951 -0.676138 -2.54951 0 
C -2.54951 0.676138 -2.280877 1.324674 -1.802776 1.802776 
C -1.324674 2.280877 -0.676138 2.54951 0 2.54951 
z
" style="stroke: #ffffff; stroke-width: 0.4"/>
    </defs>
    <g clip-path="url(#p9d72dcfbc6)">
     <use xlink:href="#m3e2081eb81" x="355.215652" y="208.744895" style="fill: #d6604d; stroke: #ffffff; stroke-width: 0.4"/>
    </g>
   </g>
   <g id="legend_1">
    <g id="line2d_41">
     <path d="M 252.743722 230.75375 
L 260.743722 230.75375 
L 268.743722 230.75375 
" style="fill: none; stroke: #2166ac; stroke-width: 1.6; stroke-linecap: square"/>
    </g>
    <g id="text_22">
     <!-- MPNet-v2 -->
     <g transform="translate(275.143722 233.55375) scale(0.08 -0.08)">
      <defs>
       <path id="DejaVuSans-50" d="M 1259 4147 
L 1259 2394 
L 2053 2394 
Q 2494 2394 2734 2622 
Q 2975 2850 2975 3272 
Q 2975 3691 2734 3919 
Q 2494 4147 2053 4147 
L 1259 4147 
z
M 628 4666 
L 2053 4666 
Q 2838 4666 3239 4311 
Q 3641 3956 3641 3272 
Q 3641 2581 3239 2228 
Q 2838 1875 2053 1875 
L 1259 1875 
L 1259 0 
L 628 0 
L 628 4666 
z
" transform="scale(0.015625)"/>
       <path id="DejaVuSans-4e" d="M 628 4666 
L 1478 4666 
L 3547 763 
L 3547 4666 
L 4159 4666 
L 4159 0 
L 3309 0 
L 1241 3903 
L 1241 0 
L 628 0 
L 628 4666 
z
" transform="scale(0.015625)"/>
       <path id="DejaVuSans-2d" d="M 313 2009 
L 1997 2009 
L 1997 1497 
L 313 1497 
L 313 2009 
z
" transform="scale(0.015625)"/>
       <path id="DejaVuSans-76" d="M 191 3500 
L 800 3500 
L 1894 563 
L 2988 3500 
L 3597 3500 
L 2284 0 
L 1503 0 
L 191 3500 
z
" transform="scale(0.015625)"/>
      </defs>
      <use xlink:href="#DejaVuSans-4d"/>
      <use xlink:href="#DejaVuSans-50" transform="translate(86.279297 0)"/>
      <use xlink:href="#DejaVuSans-4e" transform="translate(146.582031 0)"/>
      <use xlink:href="#DejaVuSans-65" transform="translate(221.386719 0)"/>
      <use xlink:href="#DejaVuSans-74" transform="translate(282.910156 0)"/>
      <use xlink:href="#DejaVuSans-2d" transform="translate(322.119141 0)"/>
      <use xlink:href="#DejaVuSans-76" transform="translate(355.578125 0)"/>
      <use xlink:href="#DejaVuSans-32" transform="translate(414.757812 0)"/>
     </g>
    </g>
    <g id="line2d_42">
     <path d="M 252.743722 242.49625 
L 260.743722 242.49625 
L 268.743722 242.49625 
" style="fill: none; stroke: #4393c3; stroke-width: 1.6; stroke-linecap: square"/>
    </g>
    <g id="text_23">
     <!-- MPNet-P -->
     <g transform="translate(275.143722 245.29625) scale(0.08 -0.08)">
      <use xlink:href="#DejaVuSans-4d"/>
      <use xlink:href="#DejaVuSans-50" transform="translate(86.279297 0)"/>
      <use xlink:href="#DejaVuSans-4e" transform="translate(146.582031 0)"/>
      <use xlink:href="#DejaVuSans-65" transform="translate(221.386719 0)"/>
      <use xlink:href="#DejaVuSans-74" transform="translate(282.910156 0)"/>
      <use xlink:href="#DejaVuSans-2d" transform="translate(322.119141 0)"/>
      <use xlink:href="#DejaVuSans-50" transform="translate(358.203125 0)"/>
     </g>
    </g>
    <g id="line2d_43">
     <path d="M 329.414972 230.75375 
L 337.414972 230.75375 
L 345.414972 230.75375 
" style="fill: none; stroke: #f4a582; stroke-width: 1.6; stroke-linecap: square"/>
    </g>
    <g id="text_24">
     <!-- SciBERT -->
     <g transform="translate(351.814972 233.55375) scale(0.08 -0.08)">
      <defs>
       <path id="DejaVuSans-53" d="M 3425 4513 
L 3425 3897 
Q 3066 4069 2747 4153 
Q 2428 4238 2131 4238 
Q 1616 4238 1336 4038 
Q 1056 3838 1056 3469 
Q 1056 3159 1242 3001 
Q 1428 2844 1947 2747 
L 2328 2669 
Q 3034 2534 3370 2195 
Q 3706 1856 3706 1288 
Q 3706 609 3251 259 
Q 2797 -91 1919 -91 
Q 1588 -91 1214 -16 
Q 841 59 441 206 
L 441 856 
Q 825 641 1194 531 
Q 1563 422 1919 422 
Q 2459 422 2753 634 
Q 3047 847 3047 1241 
Q 3047 1584 2836 1778 
Q 2625 1972 2144 2069 
L 1759 2144 
Q 1053 2284 737 2584 
Q 422 2884 422 3419 
Q 422 4038 858 4394 
Q 1294 4750 2059 4750 
Q 2388 4750 2728 4690 
Q 3069 4631 3425 4513 
z
" transform="scale(0.015625)"/>
       <path id="DejaVuSans-63" d="M 3122 3366 
L 3122 2828 
Q 2878 2963 2633 3030 
Q 2388 3097 2138 3097 
Q 1578 3097 1268 2742 
Q 959 2388 959 1747 
Q 959 1106 1268 751 
Q 1578 397 2138 397 
Q 2388 397 2633 464 
Q 2878 531 3122 666 
L 3122 134 
Q 2881 22 2623 -34 
Q 2366 -91 2075 -91 
Q 1284 -91 818 406 
Q 353 903 353 1747 
Q 353 2603 823 3093 
Q 1294 3584 2113 3584 
Q 2378 3584 2631 3529 
Q 2884 3475 3122 3366 
z
" transform="scale(0.015625)"/>
       <path id="DejaVuSans-42" d="M 1259 2228 
L 1259 519 
L 2272 519 
Q 2781 519 3026 730 
Q 3272 941 3272 1375 
Q 3272 1813 3026 2020 
Q 2781 2228 2272 2228 
L 1259 2228 
z
M 1259 4147 
L 1259 2741 
L 2194 2741 
Q 2656 2741 2882 2914 
Q 3109 3088 3109 3444 
Q 3109 3797 2882 3972 
Q 2656 4147 2194 4147 
L 1259 4147 
z
M 628 4666 
L 2241 4666 
Q 2963 4666 3353 4366 
Q 3744 4066 3744 3513 
Q 3744 3084 3544 2831 
Q 3344 2578 2956 2516 
Q 3422 2416 3680 2098 
Q 3938 1781 3938 1306 
Q 3938 681 3513 340 
Q 3088 0 2303 0 
L 628 0 
L 628 4666 
z
" transform="scale(0.015625)"/>
       <path id="DejaVuSans-45" d="M 628 4666 
L 3578 4666 
L 3578 4134 
L 1259 4134 
L 1259 2753 
L 3481 2753 
L 3481 2222 
L 1259 2222 
L 1259 531 
L 3634 531 
L 3634 0 
L 628 0 
L 628 4666 
z
" transform="scale(0.015625)"/>
       <path id="DejaVuSans-52" d="M 2841 2188 
Q 3044 2119 3236 1894 
Q 3428 1669 3622 1275 
L 4263 0 
L 3584 0 
L 2988 1197 
Q 2756 1666 2539 1819 
Q 2322 1972 1947 1972 
L 1259 1972 
L 1259 0 
L 628 0 
L 628 4666 
L 2053 4666 
Q 2853 4666 3247 4331 
Q 3641 3997 3641 3322 
Q 3641 2881 3436 2590 
Q 3231 2300 2841 2188 
z
M 1259 4147 
L 1259 2491 
L 2053 2491 
Q 2509 2491 2742 2702 
Q 2975 2913 2975 3322 
Q 2975 3731 2742 3939 
Q 2509 4147 2053 4147 
L 1259 4147 
z
" transform="scale(0.015625)"/>
       <path id="DejaVuSans-54" d="M -19 4666 
L 3928 4666 
L 3928 4134 
L 2272 4134 
L 2272 0 
L 1638 0 
L 1638 4134 
L -19 4134 
L -19 4666 
z
" transform="scale(0.015625)"/>
      </defs>
      <use xlink:href="#DejaVuSans-53"/>
      <use xlink:href="#DejaVuSans-63" transform="translate(63.476562 0)"/>
      <use xlink:href="#DejaVuSans-69" transform="translate(118.457031 0)"/>
      <use xlink:href="#DejaVuSans-42" transform="translate(146.240234 0)"/>
      <use xlink:href="#DejaVuSans-45" transform="translate(214.84375 0)"/>
      <use xlink:href="#DejaVuSans-52" transform="translate(278.027344 0)"/>
      <use xlink:href="#DejaVuSans-54" transform="translate(340.259766 0)"/>
     </g>
    </g>
    <g id="line2d_44">
     <path d="M 329.414972 242.49625 
L 337.414972 242.49625 
L 345.414972 242.49625 
" style="fill: none; stroke: #d6604d; stroke-width: 1.6; stroke-linecap: square"/>
    </g>
    <g id="text_25">
     <!-- BERT -->
     <g transform="translate(351.814972 245.29625) scale(0.08 -0.08)">
      <use xlink:href="#DejaVuSans-42"/>
      <use xlink:href="#DejaVuSans-45" transform="translate(68.603516 0)"/>
      <use xlink:href="#DejaVuSans-52" transform="translate(131.787109 0)"/>
      <use xlink:href="#DejaVuSans-54" transform="translate(194.019531 0)"/>
     </g>
    </g>
   </g>
  </g>
  <g id="axes_2">
   <g id="patch_5">
    <path d="M 444.387358 254.16 
L 621.932812 254.16 
L 621.932812 32.4 
L 444.387358 32.4 
z
" style="fill: #ffffff"/>
   </g>
   <g id="matplotlib.axis_3">
    <g id="xtick_10">
     <g id="line2d_45">
      <path d="M 444.387358 254.16 
L 444.387358 32.4 
" clip-path="url(#pb1a0960ebf)" style="fill: none; stroke: #b0b0b0; stroke-opacity: 0.3; stroke-width: 0.5; stroke-linecap: square"/>
     </g>
     <g id="line2d_46">
      <g>
       <use xlink:href="#m8deba47b1d" x="444.387358" y="254.16" style="stroke: #000000; stroke-width: 0.8"/>
      </g>
     </g>
     <g id="text_26">
      <!-- 0.0 -->
      <g transform="translate(438.026108 267.23875) scale(0.08 -0.08)">
       <use xlink:href="#DejaVuSans-30"/>
       <use xlink:href="#DejaVuSans-2e" transform="translate(63.623047 0)"/>
       <use xlink:href="#DejaVuSans-30" transform="translate(95.410156 0)"/>
      </g>
     </g>
    </g>
    <g id="xtick_11">
     <g id="line2d_47">
      <path d="M 471.515607 254.16 
L 471.515607 32.4 
" clip-path="url(#pb1a0960ebf)" style="fill: none; stroke: #b0b0b0; stroke-opacity: 0.3; stroke-width: 0.5; stroke-linecap: square"/>
     </g>
     <g id="line2d_48">
      <g>
       <use xlink:href="#m8deba47b1d" x="471.515607" y="254.16" style="stroke: #000000; stroke-width: 0.8"/>
      </g>
     </g>
     <g id="text_27">
      <!-- 0.1 -->
      <g transform="translate(465.154357 267.23875) scale(0.08 -0.08)">
       <use xlink:href="#DejaVuSans-30"/>
       <use xlink:href="#DejaVuSans-2e" transform="translate(63.623047 0)"/>
       <use xlink:href="#DejaVuSans-31" transform="translate(95.410156 0)"/>
      </g>
     </g>
    </g>
    <g id="xtick_12">
     <g id="line2d_49">
      <path d="M 498.643857 254.16 
L 498.643857 32.4 
" clip-path="url(#pb1a0960ebf)" style="fill: none; stroke: #b0b0b0; stroke-opacity: 0.3; stroke-width: 0.5; stroke-linecap: square"/>
     </g>
     <g id="line2d_50">
      <g>
       <use xlink:href="#m8deba47b1d" x="498.643857" y="254.16" style="stroke: #000000; stroke-width: 0.8"/>
      </g>
     </g>
     <g id="text_28">
      <!-- 0.2 -->
      <g transform="translate(492.282607 267.23875) scale(0.08 -0.08)">
       <use xlink:href="#DejaVuSans-30"/>
       <use xlink:href="#DejaVuSans-2e" transform="translate(63.623047 0)"/>
       <use xlink:href="#DejaVuSans-32" transform="translate(95.410156 0)"/>
      </g>
     </g>
    </g>
    <g id="xtick_13">
     <g id="line2d_51">
      <path d="M 525.772106 254.16 
L 525.772106 32.4 
" clip-path="url(#pb1a0960ebf)" style="fill: none; stroke: #b0b0b0; stroke-opacity: 0.3; stroke-width: 0.5; stroke-linecap: square"/>
     </g>
     <g id="line2d_52">
      <g>
       <use xlink:href="#m8deba47b1d" x="525.772106" y="254.16" style="stroke: #000000; stroke-width: 0.8"/>
      </g>
     </g>
     <g id="text_29">
      <!-- 0.3 -->
      <g transform="translate(519.410856 267.23875) scale(0.08 -0.08)">
       <use xlink:href="#DejaVuSans-30"/>
       <use xlink:href="#DejaVuSans-2e" transform="translate(63.623047 0)"/>
       <use xlink:href="#DejaVuSans-33" transform="translate(95.410156 0)"/>
      </g>
     </g>
    </g>
    <g id="xtick_14">
     <g id="line2d_53">
      <path d="M 552.900356 254.16 
L 552.900356 32.4 
" clip-path="url(#pb1a0960ebf)" style="fill: none; stroke: #b0b0b0; stroke-opacity: 0.3; stroke-width: 0.5; stroke-linecap: square"/>
     </g>
     <g id="line2d_54">
      <g>
       <use xlink:href="#m8deba47b1d" x="552.900356" y="254.16" style="stroke: #000000; stroke-width: 0.8"/>
      </g>
     </g>
     <g id="text_30">
      <!-- 0.4 -->
      <g transform="translate(546.539106 267.23875) scale(0.08 -0.08)">
       <use xlink:href="#DejaVuSans-30"/>
       <use xlink:href="#DejaVuSans-2e" transform="translate(63.623047 0)"/>
       <use xlink:href="#DejaVuSans-34" transform="translate(95.410156 0)"/>
      </g>
     </g>
    </g>
    <g id="xtick_15">
     <g id="line2d_55">
      <path d="M 580.028605 254.16 
L 580.028605 32.4 
" clip-path="url(#pb1a0960ebf)" style="fill: none; stroke: #b0b0b0; stroke-opacity: 0.3; stroke-width: 0.5; stroke-linecap: square"/>
     </g>
     <g id="line2d_56">
      <g>
       <use xlink:href="#m8deba47b1d" x="580.028605" y="254.16" style="stroke: #000000; stroke-width: 0.8"/>
      </g>
     </g>
     <g id="text_31">
      <!-- 0.5 -->
      <g transform="translate(573.667355 267.23875) scale(0.08 -0.08)">
       <use xlink:href="#DejaVuSans-30"/>
       <use xlink:href="#DejaVuSans-2e" transform="translate(63.623047 0)"/>
       <use xlink:href="#DejaVuSans-35" transform="translate(95.410156 0)"/>
      </g>
     </g>
    </g>
    <g id="xtick_16">
     <g id="line2d_57">
      <path d="M 607.156855 254.16 
L 607.156855 32.4 
" clip-path="url(#pb1a0960ebf)" style="fill: none; stroke: #b0b0b0; stroke-opacity: 0.3; stroke-width: 0.5; stroke-linecap: square"/>
     </g>
     <g id="line2d_58">
      <g>
       <use xlink:href="#m8deba47b1d" x="607.156855" y="254.16" style="stroke: #000000; stroke-width: 0.8"/>
      </g>
     </g>
     <g id="text_32">
      <!-- 0.6 -->
      <g transform="translate(600.795605 267.23875) scale(0.08 -0.08)">
       <use xlink:href="#DejaVuSans-30"/>
       <use xlink:href="#DejaVuSans-2e" transform="translate(63.623047 0)"/>
       <use xlink:href="#DejaVuSans-36" transform="translate(95.410156 0)"/>
      </g>
     </g>
    </g>
    <g id="text_33">
     <!-- Best mean F1 -->
     <g transform="translate(502.122038 279.741094) scale(0.09 -0.09)">
      <defs>
       <path id="DejaVuSans-6d" d="M 3328 2828 
Q 3544 3216 3844 3400 
Q 4144 3584 4550 3584 
Q 5097 3584 5394 3201 
Q 5691 2819 5691 2113 
L 5691 0 
L 5113 0 
L 5113 2094 
Q 5113 2597 4934 2840 
Q 4756 3084 4391 3084 
Q 3944 3084 3684 2787 
Q 3425 2491 3425 1978 
L 3425 0 
L 2847 0 
L 2847 2094 
Q 2847 2600 2669 2842 
Q 2491 3084 2119 3084 
Q 1678 3084 1418 2786 
Q 1159 2488 1159 1978 
L 1159 0 
L 581 0 
L 581 3500 
L 1159 3500 
L 1159 2956 
Q 1356 3278 1631 3431 
Q 1906 3584 2284 3584 
Q 2666 3584 2933 3390 
Q 3200 3197 3328 2828 
z
" transform="scale(0.015625)"/>
      </defs>
      <use xlink:href="#DejaVuSans-42"/>
      <use xlink:href="#DejaVuSans-65" transform="translate(68.603516 0)"/>
      <use xlink:href="#DejaVuSans-73" transform="translate(130.126953 0)"/>
      <use xlink:href="#DejaVuSans-74" transform="translate(182.226562 0)"/>
      <use xlink:href="#DejaVuSans-20" transform="translate(221.435547 0)"/>
      <use xlink:href="#DejaVuSans-6d" transform="translate(253.222656 0)"/>
      <use xlink:href="#DejaVuSans-65" transform="translate(350.634766 0)"/>
      <use xlink:href="#DejaVuSans-61" transform="translate(412.158203 0)"/>
      <use xlink:href="#DejaVuSans-6e" transform="translate(473.4375 0)"/>
      <use xlink:href="#DejaVuSans-20" transform="translate(536.816406 0)"/>
      <use xlink:href="#DejaVuSans-46" transform="translate(568.603516 0)"/>
      <use xlink:href="#DejaVuSans-31" transform="translate(626.123047 0)"/>
     </g>
    </g>
   </g>
   <g id="matplotlib.axis_4">
    <g id="ytick_10">
     <g id="line2d_59">
      <path d="M 444.387358 244.08 
L 621.932812 244.08 
" clip-path="url(#pb1a0960ebf)" style="fill: none; stroke: #b0b0b0; stroke-opacity: 0.3; stroke-width: 0.5; stroke-linecap: square"/>
     </g>
     <g id="line2d_60">
      <g>
       <use xlink:href="#m38d574d52f" x="444.387358" y="244.08" style="stroke: #000000; stroke-width: 0.8"/>
      </g>
     </g>
     <g id="text_34">
      <!-- BERT -->
      <g transform="translate(416.978608 247.119375) scale(0.08 -0.08)">
       <use xlink:href="#DejaVuSans-42"/>
       <use xlink:href="#DejaVuSans-45" transform="translate(68.603516 0)"/>
       <use xlink:href="#DejaVuSans-52" transform="translate(131.787109 0)"/>
       <use xlink:href="#DejaVuSans-54" transform="translate(194.019531 0)"/>
      </g>
     </g>
    </g>
    <g id="ytick_11">
     <g id="line2d_61">
      <path d="M 444.387358 176.88 
L 621.932812 176.88 
" clip-path="url(#pb1a0960ebf)" style="fill: none; stroke: #b0b0b0; stroke-opacity: 0.3; stroke-width: 0.5; stroke-linecap: square"/>
     </g>
     <g id="line2d_62">
      <g>
       <use xlink:href="#m38d574d52f" x="444.387358" y="176.88" style="stroke: #000000; stroke-width: 0.8"/>
      </g>
     </g>
     <g id="text_35">
      <!-- SciBERT -->
      <g transform="translate(405.278608 179.919375) scale(0.08 -0.08)">
       <use xlink:href="#DejaVuSans-53"/>
       <use xlink:href="#DejaVuSans-63" transform="translate(63.476562 0)"/>
       <use xlink:href="#DejaVuSans-69" transform="translate(118.457031 0)"/>
       <use xlink:href="#DejaVuSans-42" transform="translate(146.240234 0)"/>
       <use xlink:href="#DejaVuSans-45" transform="translate(214.84375 0)"/>
       <use xlink:href="#DejaVuSans-52" transform="translate(278.027344 0)"/>
       <use xlink:href="#DejaVuSans-54" transform="translate(340.259766 0)"/>
      </g>
     </g>
    </g>
    <g id="ytick_12">
     <g id="line2d_63">
      <path d="M 444.387358 109.68 
L 621.932812 109.68 
" clip-path="url(#pb1a0960ebf)" style="fill: none; stroke: #b0b0b0; stroke-opacity: 0.3; stroke-width: 0.5; stroke-linecap: square"/>
     </g>
     <g id="line2d_64">
      <g>
       <use xlink:href="#m38d574d52f" x="444.387358" y="109.68" style="stroke: #000000; stroke-width: 0.8"/>
      </g>
     </g>
     <g id="text_36">
      <!-- MPNet-P -->
      <g transform="translate(403.907358 112.719375) scale(0.08 -0.08)">
       <use xlink:href="#DejaVuSans-4d"/>
       <use xlink:href="#DejaVuSans-50" transform="translate(86.279297 0)"/>
       <use xlink:href="#DejaVuSans-4e" transform="translate(146.582031 0)"/>
       <use xlink:href="#DejaVuSans-65" transform="translate(221.386719 0)"/>
       <use xlink:href="#DejaVuSans-74" transform="translate(282.910156 0)"/>
       <use xlink:href="#DejaVuSans-2d" transform="translate(322.119141 0)"/>
       <use xlink:href="#DejaVuSans-50" transform="translate(358.203125 0)"/>
      </g>
     </g>
    </g>
    <g id="ytick_13">
     <g id="line2d_65">
      <path d="M 444.387358 42.48 
L 621.932812 42.48 
" clip-path="url(#pb1a0960ebf)" style="fill: none; stroke: #b0b0b0; stroke-opacity: 0.3; stroke-width: 0.5; stroke-linecap: square"/>
     </g>
     <g id="line2d_66">
      <g>
       <use xlink:href="#m38d574d52f" x="444.387358" y="42.48" style="stroke: #000000; stroke-width: 0.8"/>
      </g>
     </g>
     <g id="text_37">
      <!-- MPNet-v2 -->
      <g transform="translate(399.116108 45.519375) scale(0.08 -0.08)">
       <use xlink:href="#DejaVuSans-4d"/>
       <use xlink:href="#DejaVuSans-50" transform="translate(86.279297 0)"/>
       <use xlink:href="#DejaVuSans-4e" transform="translate(146.582031 0)"/>
       <use xlink:href="#DejaVuSans-65" transform="translate(221.386719 0)"/>
       <use xlink:href="#DejaVuSans-74" transform="translate(282.910156 0)"/>
       <use xlink:href="#DejaVuSans-2d" transform="translate(322.119141 0)"/>
       <use xlink:href="#DejaVuSans-76" transform="translate(355.578125 0)"/>
       <use xlink:href="#DejaVuSans-32" transform="translate(414.757812 0)"/>
      </g>
     </g>
    </g>
   </g>
   <g id="LineCollection_1">
    <path d="M 444.387358 244.08 
L 488.832968 244.08 
" clip-path="url(#pb1a0960ebf)" style="fill: none; stroke: #d6604d; stroke-width: 2"/>
    <path d="M 444.387358 176.88 
L 519.894104 176.88 
" clip-path="url(#pb1a0960ebf)" style="fill: none; stroke: #f4a582; stroke-width: 2"/>
    <path d="M 444.387358 109.68 
L 580.879021 109.68 
" clip-path="url(#pb1a0960ebf)" style="fill: none; stroke: #4393c3; stroke-width: 2"/>
    <path d="M 444.387358 42.48 
L 589.378913 42.48 
" clip-path="url(#pb1a0960ebf)" style="fill: none; stroke: #2166ac; stroke-width: 2"/>
   </g>
   <g id="patch_6">
    <path d="M 444.387358 254.16 
L 444.387358 32.4 
" style="fill: none; stroke: #000000; stroke-width: 0.8; stroke-linejoin: miter; stroke-linecap: square"/>
   </g>
   <g id="patch_7">
    <path d="M 444.387358 254.16 
L 621.932812 254.16 
" style="fill: none; stroke: #000000; stroke-width: 0.8; stroke-linejoin: miter; stroke-linecap: square"/>
   </g>
   <g id="PathCollection_5">
    <defs>
     <path id="C0_0_3f4404c1d9" d="M 0 2.645751 
C 0.701661 2.645751 1.374679 2.366978 1.870829 1.870829 
C 2.366978 1.374679 2.645751 0.701661 2.645751 -0 
C 2.645751 -0.701661 2.366978 -1.374679 1.870829 -1.870829 
C 1.374679 -2.366978 0.701661 -2.645751 0 -2.645751 
C -0.701661 -2.645751 -1.374679 -2.366978 -1.870829 -1.870829 
C -2.366978 -1.374679 -2.645751 -0.701661 -2.645751 0 
C -2.645751 0.701661 -2.366978 1.374679 -1.870829 1.870829 
C -1.374679 2.366978 -0.701661 2.645751 0 2.645751 
z
"/>
    </defs>
    <g clip-path="url(#pb1a0960ebf)">
     <use xlink:href="#C0_0_3f4404c1d9" x="488.832968" y="244.08" style="fill: #d6604d; stroke: #d6604d"/>
    </g>
    <g clip-path="url(#pb1a0960ebf)">
     <use xlink:href="#C0_0_3f4404c1d9" x="519.894104" y="176.88" style="fill: #f4a582; stroke: #f4a582"/>
    </g>
    <g clip-path="url(#pb1a0960ebf)">
     <use xlink:href="#C0_0_3f4404c1d9" x="580.879021" y="109.68" style="fill: #4393c3; stroke: #4393c3"/>
    </g>
    <g clip-path="url(#pb1a0960ebf)">
     <use xlink:href="#C0_0_3f4404c1d9" x="589.378913" y="42.48" style="fill: #2166ac; stroke: #2166ac"/>
    </g>
   </g>
   <g id="text_38">
    <!-- τ=0.90 -->
    <g transform="translate(491.545793 246.011562) scale(0.07 -0.07)">
     <defs>
      <path id="DejaVuSans-3d" d="M 678 2906 
L 4684 2906 
L 4684 2381 
L 678 2381 
L 678 2906 
z
M 678 1631 
L 4684 1631 
L 4684 1100 
L 678 1100 
L 678 1631 
z
" transform="scale(0.015625)"/>
     </defs>
     <use xlink:href="#DejaVuSans-3c4"/>
     <use xlink:href="#DejaVuSans-3d" transform="translate(60.205078 0)"/>
     <use xlink:href="#DejaVuSans-30" transform="translate(143.994141 0)"/>
     <use xlink:href="#DejaVuSans-2e" transform="translate(207.617188 0)"/>
     <use xlink:href="#DejaVuSans-39" transform="translate(239.404297 0)"/>
     <use xlink:href="#DejaVuSans-30" transform="translate(303.027344 0)"/>
    </g>
   </g>
   <g id="text_39">
    <!-- τ=0.89 -->
    <g transform="translate(522.606929 178.811562) scale(0.07 -0.07)">
     <use xlink:href="#DejaVuSans-3c4"/>
     <use xlink:href="#DejaVuSans-3d" transform="translate(60.205078 0)"/>
     <use xlink:href="#DejaVuSans-30" transform="translate(143.994141 0)"/>
     <use xlink:href="#DejaVuSans-2e" transform="translate(207.617188 0)"/>
     <use xlink:href="#DejaVuSans-38" transform="translate(239.404297 0)"/>
     <use xlink:href="#DejaVuSans-39" transform="translate(303.027344 0)"/>
    </g>
   </g>
   <g id="text_40">
    <!-- τ=0.66 -->
    <g transform="translate(583.591846 111.611562) scale(0.07 -0.07)">
     <use xlink:href="#DejaVuSans-3c4"/>
     <use xlink:href="#DejaVuSans-3d" transform="translate(60.205078 0)"/>
     <use xlink:href="#DejaVuSans-30" transform="translate(143.994141 0)"/>
     <use xlink:href="#DejaVuSans-2e" transform="translate(207.617188 0)"/>
     <use xlink:href="#DejaVuSans-36" transform="translate(239.404297 0)"/>
     <use xlink:href="#DejaVuSans-36" transform="translate(303.027344 0)"/>
    </g>
   </g>
   <g id="text_41">
    <!-- τ=0.69 -->
    <g transform="translate(592.091738 44.411562) scale(0.07 -0.07)">
     <use xlink:href="#DejaVuSans-3c4"/>
     <use xlink:href="#DejaVuSans-3d" transform="translate(60.205078 0)"/>
     <use xlink:href="#DejaVuSans-30" transform="translate(143.994141 0)"/>
     <use xlink:href="#DejaVuSans-2e" transform="translate(207.617188 0)"/>
     <use xlink:href="#DejaVuSans-36" transform="translate(239.404297 0)"/>
     <use xlink:href="#DejaVuSans-39" transform="translate(303.027344 0)"/>
    </g>
   </g>
   <g id="text_42">
    <!-- Best operating points -->
    <g transform="translate(465.851257 26.4) scale(0.11 -0.11)">
     <defs>
      <path id="DejaVuSans-Bold-42" d="M 2456 2859 
Q 2741 2859 2887 2984 
Q 3034 3109 3034 3353 
Q 3034 3594 2887 3720 
Q 2741 3847 2456 3847 
L 1791 3847 
L 1791 2859 
L 2456 2859 
z
M 2497 819 
Q 2859 819 3042 972 
Q 3225 1125 3225 1434 
Q 3225 1738 3044 1889 
Q 2863 2041 2497 2041 
L 1791 2041 
L 1791 819 
L 2497 819 
z
M 3616 2497 
Q 4003 2384 4215 2081 
Q 4428 1778 4428 1338 
Q 4428 663 3972 331 
Q 3516 0 2584 0 
L 588 0 
L 588 4666 
L 2394 4666 
Q 3366 4666 3802 4372 
Q 4238 4078 4238 3431 
Q 4238 3091 4078 2852 
Q 3919 2613 3616 2497 
z
" transform="scale(0.015625)"/>
      <path id="DejaVuSans-Bold-70" d="M 1656 506 
L 1656 -1331 
L 538 -1331 
L 538 3500 
L 1656 3500 
L 1656 2988 
Q 1888 3294 2169 3439 
Q 2450 3584 2816 3584 
Q 3463 3584 3878 3070 
Q 4294 2556 4294 1747 
Q 4294 938 3878 423 
Q 3463 -91 2816 -91 
Q 2450 -91 2169 54 
Q 1888 200 1656 506 
z
M 2400 2772 
Q 2041 2772 1848 2508 
Q 1656 2244 1656 1747 
Q 1656 1250 1848 986 
Q 2041 722 2400 722 
Q 2759 722 2948 984 
Q 3138 1247 3138 1747 
Q 3138 2247 2948 2509 
Q 2759 2772 2400 2772 
z
" transform="scale(0.015625)"/>
      <path id="DejaVuSans-Bold-67" d="M 2919 594 
Q 2688 288 2409 144 
Q 2131 0 1766 0 
Q 1125 0 706 504 
Q 288 1009 288 1791 
Q 288 2575 706 3076 
Q 1125 3578 1766 3578 
Q 2131 3578 2409 3434 
Q 2688 3291 2919 2981 
L 2919 3500 
L 4044 3500 
L 4044 353 
Q 4044 -491 3511 -936 
Q 2978 -1381 1966 -1381 
Q 1638 -1381 1331 -1331 
Q 1025 -1281 716 -1178 
L 716 -306 
Q 1009 -475 1290 -558 
Q 1572 -641 1856 -641 
Q 2406 -641 2662 -400 
Q 2919 -159 2919 353 
L 2919 594 
z
M 2181 2772 
Q 1834 2772 1640 2515 
Q 1447 2259 1447 1791 
Q 1447 1309 1634 1061 
Q 1822 813 2181 813 
Q 2531 813 2725 1069 
Q 2919 1325 2919 1791 
Q 2919 2259 2725 2515 
Q 2531 2772 2181 2772 
z
" transform="scale(0.015625)"/>
     </defs>
     <use xlink:href="#DejaVuSans-Bold-42"/>
     <use xlink:href="#DejaVuSans-Bold-65" transform="translate(76.220703 0)"/>
     <use xlink:href="#DejaVuSans-Bold-73" transform="translate(144.042969 0)"/>
     <use xlink:href="#DejaVuSans-Bold-74" transform="translate(203.564453 0)"/>
     <use xlink:href="#DejaVuSans-Bold-20" transform="translate(251.367188 0)"/>
     <use xlink:href="#DejaVuSans-Bold-6f" transform="translate(286.181641 0)"/>
     <use xlink:href="#DejaVuSans-Bold-70" transform="translate(354.882812 0)"/>
     <use xlink:href="#DejaVuSans-Bold-65" transform="translate(426.464844 0)"/>
     <use xlink:href="#DejaVuSans-Bold-72" transform="translate(494.287109 0)"/>
     <use xlink:href="#DejaVuSans-Bold-61" transform="translate(543.603516 0)"/>
     <use xlink:href="#DejaVuSans-Bold-74" transform="translate(611.083984 0)"/>
     <use xlink:href="#DejaVuSans-Bold-69" transform="translate(658.886719 0)"/>
     <use xlink:href="#DejaVuSans-Bold-6e" transform="translate(693.164062 0)"/>
     <use xlink:href="#DejaVuSans-Bold-67" transform="translate(764.355469 0)"/>
     <use xlink:href="#DejaVuSans-Bold-20" transform="translate(835.9375 0)"/>
     <use xlink:href="#DejaVuSans-Bold-70" transform="translate(870.751953 0)"/>
     <use xlink:href="#DejaVuSans-Bold-6f" transform="translate(942.333984 0)"/>
     <use xlink:href="#DejaVuSans-Bold-69" transform="translate(1011.035156 0)"/>
     <use xlink:href="#DejaVuSans-Bold-6e" transform="translate(1045.3125 0)"/>
     <use xlink:href="#DejaVuSans-Bold-74" transform="translate(1116.503906 0)"/>
     <use xlink:href="#DejaVuSans-Bold-73" transform="translate(1164.306641 0)"/>
    </g>
   </g>
  </g>
  <g id="text_43">
   <!-- Calibration Figure C1. Pairwise Threshold Selection (ELSST training) -->
   <g transform="translate(157.664812 10.8945) scale(0.096 -0.096)">
    <defs>
     <path id="DejaVuSans-62" d="M 3116 1747 
Q 3116 2381 2855 2742 
Q 2594 3103 2138 3103 
Q 1681 3103 1420 2742 
Q 1159 2381 1159 1747 
Q 1159 1113 1420 752 
Q 1681 391 2138 391 
Q 2594 391 2855 752 
Q 3116 1113 3116 1747 
z
M 1159 2969 
Q 1341 3281 1617 3432 
Q 1894 3584 2278 3584 
Q 2916 3584 3314 3078 
Q 3713 2572 3713 1747 
Q 3713 922 3314 415 
Q 2916 -91 2278 -91 
Q 1894 -91 1617 61 
Q 1341 213 1159 525 
L 1159 0 
L 581 0 
L 581 4863 
L 1159 4863 
L 1159 2969 
z
" transform="scale(0.015625)"/>
     <path id="DejaVuSans-75" d="M 544 1381 
L 544 3500 
L 1119 3500 
L 1119 1403 
Q 1119 906 1312 657 
Q 1506 409 1894 409 
Q 2359 409 2629 706 
Q 2900 1003 2900 1516 
L 2900 3500 
L 3475 3500 
L 3475 0 
L 2900 0 
L 2900 538 
Q 2691 219 2414 64 
Q 2138 -91 1772 -91 
Q 1169 -91 856 284 
Q 544 659 544 1381 
z
M 1991 3584 
L 1991 3584 
z
" transform="scale(0.015625)"/>
     <path id="DejaVuSans-4c" d="M 628 4666 
L 1259 4666 
L 1259 531 
L 3531 531 
L 3531 0 
L 628 0 
L 628 4666 
z
" transform="scale(0.015625)"/>
    </defs>
    <use xlink:href="#DejaVuSans-43"/>
    <use xlink:href="#DejaVuSans-61" transform="translate(69.824219 0)"/>
    <use xlink:href="#DejaVuSans-6c" transform="translate(131.103516 0)"/>
    <use xlink:href="#DejaVuSans-69" transform="translate(158.886719 0)"/>
    <use xlink:href="#DejaVuSans-62" transform="translate(186.669922 0)"/>
    <use xlink:href="#DejaVuSans-72" transform="translate(250.146484 0)"/>
    <use xlink:href="#DejaVuSans-61" transform="translate(291.259766 0)"/>
    <use xlink:href="#DejaVuSans-74" transform="translate(352.539062 0)"/>
    <use xlink:href="#DejaVuSans-69" transform="translate(391.748047 0)"/>
    <use xlink:href="#DejaVuSans-6f" transform="translate(419.53125 0)"/>
    <use xlink:href="#DejaVuSans-6e" transform="translate(480.712891 0)"/>
    <use xlink:href="#DejaVuSans-20" transform="translate(544.091797 0)"/>
    <use xlink:href="#DejaVuSans-46" transform="translate(575.878906 0)"/>
    <use xlink:href="#DejaVuSans-69" transform="translate(626.148438 0)"/>
    <use xlink:href="#DejaVuSans-67" transform="translate(653.931641 0)"/>
    <use xlink:href="#DejaVuSans-75" transform="translate(717.408203 0)"/>
    <use xlink:href="#DejaVuSans-72" transform="translate(780.787109 0)"/>
    <use xlink:href="#DejaVuSans-65" transform="translate(819.650391 0)"/>
    <use xlink:href="#DejaVuSans-20" transform="translate(881.173828 0)"/>
    <use xlink:href="#DejaVuSans-43" transform="translate(912.960938 0)"/>
    <use xlink:href="#DejaVuSans-31" transform="translate(982.785156 0)"/>
    <use xlink:href="#DejaVuSans-2e" transform="translate(1046.408203 0)"/>
    <use xlink:href="#DejaVuSans-20" transform="translate(1078.195312 0)"/>
    <use xlink:href="#DejaVuSans-50" transform="translate(1109.982422 0)"/>
    <use xlink:href="#DejaVuSans-61" transform="translate(1165.785156 0)"/>
    <use xlink:href="#DejaVuSans-69" transform="translate(1227.064453 0)"/>
    <use xlink:href="#DejaVuSans-72" transform="translate(1254.847656 0)"/>
    <use xlink:href="#DejaVuSans-77" transform="translate(1295.960938 0)"/>
    <use xlink:href="#DejaVuSans-69" transform="translate(1377.748047 0)"/>
    <use xlink:href="#DejaVuSans-73" transform="translate(1405.53125 0)"/>
    <use xlink:href="#DejaVuSans-65" transform="translate(1457.630859 0)"/>
    <use xlink:href="#DejaVuSans-20" transform="translate(1519.154297 0)"/>
    <use xlink:href="#DejaVuSans-54" transform="translate(1550.941406 0)"/>
    <use xlink:href="#DejaVuSans-68" transform="translate(1612.025391 0)"/>
    <use xlink:href="#DejaVuSans-72" transform="translate(1675.404297 0)"/>
    <use xlink:href="#DejaVuSans-65" transform="translate(1714.267578 0)"/>
    <use xlink:href="#DejaVuSans-73" transform="translate(1775.791016 0)"/>
    <use xlink:href="#DejaVuSans-68" transform="translate(1827.890625 0)"/>
    <use xlink:href="#DejaVuSans-6f" transform="translate(1891.269531 0)"/>
    <use xlink:href="#DejaVuSans-6c" transform="translate(1952.451172 0)"/>
    <use xlink:href="#DejaVuSans-64" transform="translate(1980.234375 0)"/>
    <use xlink:href="#DejaVuSans-20" transform="translate(2043.710938 0)"/>
    <use xlink:href="#DejaVuSans-53" transform="translate(2075.498047 0)"/>
    <use xlink:href="#DejaVuSans-65" transform="translate(2138.974609 0)"/>
    <use xlink:href="#DejaVuSans-6c" transform="translate(2200.498047 0)"/>
    <use xlink:href="#DejaVuSans-65" transform="translate(2228.28125 0)"/>
    <use xlink:href="#DejaVuSans-63" transform="translate(2289.804688 0)"/>
    <use xlink:href="#DejaVuSans-74" transform="translate(2344.785156 0)"/>
    <use xlink:href="#DejaVuSans-69" transform="translate(2383.994141 0)"/>
    <use xlink:href="#DejaVuSans-6f" transform="translate(2411.777344 0)"/>
    <use xlink:href="#DejaVuSans-6e" transform="translate(2472.958984 0)"/>
    <use xlink:href="#DejaVuSans-20" transform="translate(2536.337891 0)"/>
    <use xlink:href="#DejaVuSans-28" transform="translate(2568.125 0)"/>
    <use xlink:href="#DejaVuSans-45" transform="translate(2607.138672 0)"/>
    <use xlink:href="#DejaVuSans-4c" transform="translate(2670.322266 0)"/>
    <use xlink:href="#DejaVuSans-53" transform="translate(2726.035156 0)"/>
    <use xlink:href="#DejaVuSans-53" transform="translate(2789.511719 0)"/>
    <use xlink:href="#DejaVuSans-54" transform="translate(2852.988281 0)"/>
    <use xlink:href="#DejaVuSans-20" transform="translate(2914.072266 0)"/>
    <use xlink:href="#DejaVuSans-74" transform="translate(2945.859375 0)"/>
    <use xlink:href="#DejaVuSans-72" transform="translate(2985.068359 0)"/>
    <use xlink:href="#DejaVuSans-61" transform="translate(3026.181641 0)"/>
    <use xlink:href="#DejaVuSans-69" transform="translate(3087.460938 0)"/>
    <use xlink:href="#DejaVuSans-6e" transform="translate(3115.244141 0)"/>
    <use xlink:href="#DejaVuSans-69" transform="translate(3178.623047 0)"/>
    <use xlink:href="#DejaVuSans-6e" transform="translate(3206.40625 0)"/>
    <use xlink:href="#DejaVuSans-67" transform="translate(3269.785156 0)"/>
    <use xlink:href="#DejaVuSans-29" transform="translate(3333.261719 0)"/>
   </g>
  </g>
 </g>
 <defs>
  <clipPath id="p9d72dcfbc6">
   <rect x="36.032813" y="32.4" width="355.090909" height="221.76"/>
  </clipPath>
  <clipPath id="pb1a0960ebf">
   <rect x="444.387358" y="32.4" width="177.545455" height="221.76"/>
  </clipPath>
 </defs>
</svg>
